;TYPE=PLATED
;Layer: PTH_Through
;EasyEDA Pro Client v2.2.45.4, 2026-01-28 09:00:24
;Gerber Generator version 0.3
M48
METRIC,LZ,0000.00000
;Hole size 1 = 0.30500 METRIC
T01C0.30500
;Hole size 2 = 1.00000 METRIC
T02C1.00000
;Hole size 3 = 2.00000 METRIC
T03C2.00000
%
G05
G90
T01
X38.0238Y-20.20291
X33.7566Y-19.32851
X33.7566Y-21.1328
X33.6296Y-11.0998
X37.92728Y-10.0838
X37.9349Y-11.9888
X33.48228Y-8.5598
X41.2496Y-19.24082
X46.3296Y-17.2466
X46.29785Y-21.1074
X33.48665Y-23.7744
X41.35221Y-21.50288
X11.684Y-17.6276
X13.3096Y-17.6276
X11.5824Y-1.9304
X13.208Y-1.9304
T02
X51.81059Y-23.1648
X54.31058Y-23.1648
X51.81059Y-16.3068
X54.31058Y-16.3068
X36.18959Y-4.8768
X38.68958Y-4.8768
X43.56354Y-10.5918
X47.06366Y-10.5918
X4.0132Y-25.92799
X4.0132Y-28.42798
X4.064Y-10.17999
X4.064Y-12.67998
T03
X-3.0492Y-1.8542
X-3.048Y-29.0068
X59.9948Y-1.8542
X59.9948Y-29.0068
M30