;TYPE=PLATED
;Layer: PTH_Through_Via
;EasyEDA Pro Client v2.2.45.4, 2026-02-21 16:02:54
;Gerber Generator version 0.3
M48
METRIC,LZ,0000.00000
;Hole size 1 = 0.30500 METRIC
T01C0.30500
%
G05
G90
T01
X40.94489Y-20.45699
X36.6776Y-19.58251
X36.6776Y-21.3868
X35.0266Y-11.0998
X39.19728Y-10.0838
X39.2049Y-11.9888
X33.48228Y-8.5598
X46.2026Y-19.11383
X51.1556Y-17.5006
X51.12385Y-21.3614
X43.942Y-19.812
X17.48465Y-13.62487
X9.04054Y-18.796
X9.906Y-18.796
X8.128Y-18.796
X8.128Y-5.08
X8.9916Y-5.08
X9.906Y-5.08
X35.0266Y-10.2108
X35.0266Y-11.9888
X51.42667Y-13.21479
M30