;TYPE=PLATED
;Layer: PTH_Through
;EasyEDA Pro Client v2.2.45.4, 2026-02-21 16:02:54
;Gerber Generator version 0.3
M48
METRIC,LZ,0000.00000
;Hole size 1 = 0.30500 METRIC
T01C0.30500
;Hole size 2 = 1.00000 METRIC
T02C1.00000
;Hole size 3 = 1.02001 METRIC
T03C1.02001
;Hole size 4 = 1.20000 METRIC
T04C1.20000
;Hole size 5 = 2.00000 METRIC
T05C2.00000
%
G05
G90
T01
X40.94489Y-20.45699
X36.6776Y-19.58251
X36.6776Y-21.3868
X35.0266Y-11.0998
X39.19728Y-10.0838
X39.2049Y-11.9888
X33.48228Y-8.5598
X46.2026Y-19.11383
X51.1556Y-17.5006
X51.12385Y-21.3614
X43.942Y-19.812
X17.48465Y-13.62487
X9.04054Y-18.796
X9.906Y-18.796
X8.128Y-18.796
X8.128Y-5.08
X8.9916Y-5.08
X9.906Y-5.08
X35.0266Y-10.2108
X35.0266Y-11.9888
X51.42667Y-13.21479
T02
X56.63659Y-23.4188
X59.13658Y-23.4188
X56.63659Y-16.5608
X59.13658Y-16.5608
X52.34399Y-3.048
X54.84398Y-3.048
X42.19194Y-5.334
X45.69206Y-5.334
X-1.905Y-21.10199
X-1.905Y-23.60198
X-1.905Y-7.38599
X-1.905Y-9.88598
T03
X0.254Y-15.113
X2.794Y-15.113
X5.334Y-15.113
X7.874Y-15.113
X10.414Y-15.113
T04
X12.573Y-2.286
X12.573Y-4.826
T05
X61.5Y-1.5
X61.5Y-29.5
X-3.5Y-1.5
X-3.5Y-29.5
M30