G04 Layer: TopPasteMaskLayer*
G04 EasyEDA Pro v2.2.45.4, 2026-02-21 16:19:53*
G04 Gerber Generator version 0.3*
G04 Scale: 100 percent, Rotated: No, Reflected: No*
G04 Dimensions in millimeters*
G04 Leading zeros omitted, absolute positions, 4 integers and 5 decimals*
G04 Generated by one-click*
%FSLAX45Y45*%
%MOMM*%
%ADD10O,1.324X0.308*%
%ADD11R,2.1021X1.80188*%
%ADD12R,2.1021X1.80198*%
%ADD13R,2.49999X1.1*%
%ADD14R,2.34X3.59999*%
%ADD15R,2.0099X1.59301*%
%ADD16R,2.0X1.59301*%
G75*


G04 PolygonModel Start*
G36*
G01X3708083Y-2024880D02*
G01X3708083Y-1896882D01*
G01X3713084Y-1891881D01*
G01X3828085Y-1891881D01*
G01X3833084Y-1896882D01*
G01X3833586Y-1937885D01*
G01X3788585Y-1937885D01*
G01X3788585Y-1982884D01*
G01X3832586Y-1982884D01*
G01X3833084Y-2024880D01*
G01X3828085Y-2029882D01*
G01X3713084Y-2029882D01*
G01X3708083Y-2024880D01*
G37*
G36*
G01X4049078Y-1896880D02*
G01X4049078Y-2024878D01*
G01X4044076Y-2029879D01*
G01X3929075Y-2029879D01*
G01X3924076Y-2024878D01*
G01X3923574Y-1983875D01*
G01X3968575Y-1983875D01*
G01X3968575Y-1938876D01*
G01X3924574Y-1938876D01*
G01X3924076Y-1896880D01*
G01X3929075Y-1891878D01*
G01X4044076Y-1891878D01*
G01X4049078Y-1896880D01*
G37*
G36*
G01X3708083Y-2202680D02*
G01X3708083Y-2074682D01*
G01X3713084Y-2069681D01*
G01X3828085Y-2069681D01*
G01X3833084Y-2074682D01*
G01X3833586Y-2115685D01*
G01X3788585Y-2115685D01*
G01X3788585Y-2160684D01*
G01X3832586Y-2160684D01*
G01X3833084Y-2202680D01*
G01X3828085Y-2207682D01*
G01X3713084Y-2207682D01*
G01X3708083Y-2202680D01*
G37*
G36*
G01X4049078Y-2074680D02*
G01X4049078Y-2202678D01*
G01X4044076Y-2207679D01*
G01X3929075Y-2207679D01*
G01X3924076Y-2202678D01*
G01X3923574Y-2161675D01*
G01X3968575Y-2161675D01*
G01X3968575Y-2116676D01*
G01X3924574Y-2116676D01*
G01X3924076Y-2074680D01*
G01X3929075Y-2069678D01*
G01X4044076Y-2069678D01*
G01X4049078Y-2074680D01*
G37*
G36*
G01X3876358Y-1134880D02*
G01X3876358Y-1262878D01*
G01X3871356Y-1267879D01*
G01X3756355Y-1267879D01*
G01X3751356Y-1262878D01*
G01X3750854Y-1221875D01*
G01X3795855Y-1221875D01*
G01X3795855Y-1176876D01*
G01X3751854Y-1176876D01*
G01X3751356Y-1134880D01*
G01X3756355Y-1129878D01*
G01X3871356Y-1129878D01*
G01X3876358Y-1134880D01*
G37*
G36*
G01X3535363Y-1262880D02*
G01X3535363Y-1134882D01*
G01X3540364Y-1129881D01*
G01X3655365Y-1129881D01*
G01X3660364Y-1134882D01*
G01X3660866Y-1175885D01*
G01X3615865Y-1175885D01*
G01X3615865Y-1220884D01*
G01X3659866Y-1220884D01*
G01X3660364Y-1262880D01*
G01X3655365Y-1267882D01*
G01X3540364Y-1267882D01*
G01X3535363Y-1262880D01*
G37*
G36*
G01X3876358Y-957080D02*
G01X3876358Y-1085078D01*
G01X3871356Y-1090079D01*
G01X3756355Y-1090079D01*
G01X3751356Y-1085078D01*
G01X3750854Y-1044075D01*
G01X3795855Y-1044075D01*
G01X3795855Y-999076D01*
G01X3751854Y-999076D01*
G01X3751356Y-957080D01*
G01X3756355Y-952078D01*
G01X3871356Y-952078D01*
G01X3876358Y-957080D01*
G37*
G36*
G01X3535363Y-1085080D02*
G01X3535363Y-957082D01*
G01X3540364Y-952081D01*
G01X3655365Y-952081D01*
G01X3660364Y-957082D01*
G01X3660866Y-998085D01*
G01X3615865Y-998085D01*
G01X3615865Y-1043084D01*
G01X3659866Y-1043084D01*
G01X3660364Y-1085080D01*
G01X3655365Y-1090082D01*
G01X3540364Y-1090082D01*
G01X3535363Y-1085080D01*
G37*
G36*
G01X1206000Y-2369998D02*
G01X1333998Y-2369998D01*
G01X1338999Y-2374999D01*
G01X1338999Y-2490000D01*
G01X1333998Y-2494999D01*
G01X1292995Y-2495502D01*
G01X1292995Y-2450501D01*
G01X1247996Y-2450501D01*
G01X1247996Y-2494501D01*
G01X1206000Y-2494999D01*
G01X1200998Y-2490000D01*
G01X1200998Y-2374999D01*
G01X1206000Y-2369998D01*
G37*
G36*
G01X1206000Y-2584999D02*
G01X1247996Y-2585001D01*
G01X1247996Y-2629499D01*
G01X1292995Y-2629499D01*
G01X1292995Y-2585502D01*
G01X1333998Y-2584999D01*
G01X1338999Y-2590000D01*
G01X1338999Y-2704998D01*
G01X1333998Y-2710000D01*
G01X1206000Y-2710000D01*
G01X1200998Y-2704998D01*
G01X1200998Y-2590000D01*
G01X1206000Y-2584999D01*
G37*
G36*
G01X1334000Y-1109802D02*
G01X1206002Y-1109802D01*
G01X1201001Y-1104801D01*
G01X1201001Y-989800D01*
G01X1206002Y-984801D01*
G01X1247005Y-984298D01*
G01X1247005Y-1029299D01*
G01X1292004Y-1029299D01*
G01X1292004Y-985299D01*
G01X1334000Y-984801D01*
G01X1339002Y-989800D01*
G01X1339002Y-1104801D01*
G01X1334000Y-1109802D01*
G37*
G36*
G01X1334000Y-894801D02*
G01X1292004Y-894799D01*
G01X1292004Y-850301D01*
G01X1247005Y-850301D01*
G01X1247005Y-894298D01*
G01X1206002Y-894801D01*
G01X1201001Y-889800D01*
G01X1201001Y-774802D01*
G01X1206002Y-769800D01*
G01X1334000Y-769800D01*
G01X1339002Y-774802D01*
G01X1339002Y-889800D01*
G01X1334000Y-894801D01*
G37*
G36*
G01X4742082Y-1385480D02*
G01X4742082Y-1257482D01*
G01X4747083Y-1252480D01*
G01X4862085Y-1252480D01*
G01X4867083Y-1257482D01*
G01X4867586Y-1298485D01*
G01X4822585Y-1298485D01*
G01X4822585Y-1343483D01*
G01X4866585Y-1343483D01*
G01X4867083Y-1385480D01*
G01X4862085Y-1390481D01*
G01X4747083Y-1390481D01*
G01X4742082Y-1385480D01*
G37*
G36*
G01X5083077Y-1257479D02*
G01X5083077Y-1385477D01*
G01X5078076Y-1390479D01*
G01X4963075Y-1390479D01*
G01X4958076Y-1385477D01*
G01X4957573Y-1344474D01*
G01X5002574Y-1344474D01*
G01X5002574Y-1299475D01*
G01X4958574Y-1299475D01*
G01X4958076Y-1257479D01*
G01X4963075Y-1252478D01*
G01X5078076Y-1252478D01*
G01X5083077Y-1257479D01*
G37*

G04 Pad Start*
G54D10*
G01X5217770Y-2305685D03*
G01X5217770Y-2240686D03*
G01X5217770Y-2175688D03*
G01X5217770Y-2110689D03*
G01X5217770Y-2045691D03*
G01X5217770Y-1980667D03*
G01X5217770Y-1915668D03*
G01X5217770Y-1850669D03*
G01X5217770Y-1785671D03*
G01X5217770Y-1720672D03*
G01X5217770Y-1655674D03*
G01X5217770Y-1590675D03*
G01X4505350Y-2305685D03*
G01X4505350Y-2240686D03*
G01X4505350Y-2175688D03*
G01X4505350Y-2110689D03*
G01X4505350Y-2045691D03*
G01X4505350Y-1980667D03*
G01X4505350Y-1915668D03*
G01X4505350Y-1850669D03*
G01X4505350Y-1785671D03*
G01X4505350Y-1720672D03*
G01X4505350Y-1655674D03*
G01X4505350Y-1590675D03*
G54D11*
G01X1597660Y-601980D03*
G01X1597660Y-855980D03*
G01X1597660Y-1109980D03*
G54D12*
G01X1597660Y-1363980D03*
G01X1597660Y-1617980D03*
G01X1597660Y-1871980D03*
G01X1597660Y-2125980D03*
G01X1597660Y-2379980D03*
G01X3197860Y-2379980D03*
G01X3197860Y-2125980D03*
G01X3197860Y-1871980D03*
G01X3197860Y-1617980D03*
G01X3197860Y-1363980D03*
G54D11*
G01X3197860Y-1109980D03*
G01X3197860Y-855980D03*
G01X3197860Y-601980D03*
G54D12*
G01X1597660Y-2633980D03*
G01X3197860Y-2633980D03*
G54D13*
G01X904055Y-2442337D03*
G01X904055Y-2212340D03*
G01X904055Y-1982343D03*
G54D14*
G01X310063Y-2212340D03*
G54D13*
G01X898975Y-1070737D03*
G01X898975Y-840740D03*
G01X898975Y-610743D03*
G54D14*
G01X304983Y-840740D03*
G54D16*
G01X3333293Y-203200D03*
G01X3753307Y-203200D03*
G04 Pad End*

M02*

