G04 Layer: InnerLayer1*
G04 EasyEDA Pro v2.2.45.4, 2026-02-21 16:19:53*
G04 Gerber Generator version 0.3*
G04 Scale: 100 percent, Rotated: No, Reflected: No*
G04 Dimensions in millimeters*
G04 Leading zeros omitted, absolute positions, 4 integers and 5 decimals*
G04 Generated by one-click*
%FSLAX45Y45*%
%MOMM*%
%ADD10C,1.7*%
%ADD11C,1.6*%
%ADD12C,2.0*%
%ADD13R,2.0X2.0*%
%ADD14R,1.6X1.6*%
%ADD15C,0.6144*%
%ADD16C,0.61*%
G75*


G04 PlaneZone Start*
G36*
G01X6374346Y74346D02*
G01X6374346Y-3174346D01*
G01X-574346Y-3174346D01*
G01X-574346Y74346D01*
G01X6374346Y74346D01*
G37*
%LPC*%
G36*
G01X-475654Y-150000D02*
G03X-224346Y-150000I125654J0D01*
G03X-475654Y-150000I-125654J0D01*
G37*
G36*
G01X-475654Y-2950000D02*
G03X-224346Y-2950000I125654J0D01*
G03X-475654Y-2950000I-125654J0D01*
G37*
G36*
G01X-190500Y-627945D02*
G03X-190500Y-849253I0J-110654D01*
G03X-190500Y-627945I0J110654D01*
G37*
G36*
G01X-190500Y-877945D02*
G03X-190500Y-1099252I0J-110654D01*
G03X-190500Y-877945I0J110654D01*
G37*
G36*
G01X-190500Y-2249545D02*
G03X-190500Y-2470852I0J-110654D01*
G03X-190500Y-2249545I0J110654D01*
G37*
G36*
G01X-190500Y-1999545D02*
G03X-190500Y-2220853I0J-110654D01*
G03X-190500Y-1999545I0J110654D01*
G37*
G36*
G01X131059Y-1511303D02*
G03X-80249Y-1511303I-105654J0D01*
G03X131059Y-1511303I105654J0D01*
G37*
G36*
G01X385059Y-1511303D02*
G03X173751Y-1511303I-105654J0D01*
G03X385059Y-1511303I105654J0D01*
G37*
G36*
G01X639059Y-1511303D02*
G03X427751Y-1511303I-105654J0D01*
G03X639059Y-1511303I105654J0D01*
G37*
G36*
G01X893059Y-1511303D02*
G03X681751Y-1511303I-105654J0D01*
G03X893059Y-1511303I105654J0D01*
G37*
G36*
G01X961405Y-1405649D02*
G03X935751Y-1431303I0J-25654D01*
G01X935751Y-1591302D01*
G03X961405Y-1616956I25654J0D01*
G01X1121405Y-1616956D01*
G03X1147059Y-1591302I0J25654D01*
G01X1147059Y-1431303D01*
G03X1121405Y-1405649I-25654J0D01*
G01X961405Y-1405649D01*
G37*
G36*
G01X1131646Y-328600D02*
G03X1157300Y-354254I25654J0D01*
G01X1357300Y-354254D01*
G03X1382954Y-328600I0J25654D01*
G01X1382954Y-128600D01*
G03X1357300Y-102946I-25654J0D01*
G01X1157300Y-102946D01*
G03X1131646Y-128600I0J-25654D01*
G01X1131646Y-328600D01*
G37*
G36*
G01X1257300Y-356946D02*
G03X1257300Y-608254I0J-125654D01*
G03X1257300Y-356946I0J125654D01*
G37*
G36*
G01X1692311Y-1362487D02*
G03X1804619Y-1362487I56154J0D01*
G03X1692311Y-1362487I-56154J0D01*
G37*
G36*
G01X3468346Y-1154430D02*
G03X3502660Y-1255034I34314J-44450D01*
G03X3536974Y-1154430I0J56154D01*
G03X3536974Y-1065530I-34314J44450D01*
G03X3502660Y-964926I-34314J44450D01*
G03X3468346Y-1065530I0J-56154D01*
G03X3468346Y-1154430I34314J-44450D01*
G37*
G36*
G01X4038335Y-2045699D02*
G03X4150643Y-2045699I56154J0D01*
G03X4038335Y-2045699I-56154J0D01*
G37*
G36*
G01X4219204Y-639051D02*
G03X4219204Y-427744I0J105654D01*
G03X4219204Y-639051I0J-105654D01*
G37*
G36*
G01X4338046Y-1981200D02*
G03X4450354Y-1981200I56154J0D01*
G03X4338046Y-1981200I-56154J0D01*
G37*
G36*
G01X4569216Y-639051D02*
G03X4569216Y-427744I0J105654D01*
G03X4569216Y-639051I0J-105654D01*
G37*
G36*
G01X5123745Y-304800D02*
G03X5345053Y-304800I110654J0D01*
G03X5123745Y-304800I-110654J0D01*
G37*
G36*
G01X5373745Y-304800D02*
G03X5595052Y-304800I110654J0D01*
G03X5373745Y-304800I-110654J0D01*
G37*
G36*
G01X5553005Y-1656080D02*
G03X5774313Y-1656080I110654J0D01*
G03X5553005Y-1656080I-110654J0D01*
G37*
G36*
G01X5553005Y-2341880D02*
G03X5774313Y-2341880I110654J0D01*
G03X5553005Y-2341880I-110654J0D01*
G37*
G36*
G01X5803005Y-1656080D02*
G03X6024312Y-1656080I110654J0D01*
G03X5803005Y-1656080I-110654J0D01*
G37*
G36*
G01X5803005Y-2341880D02*
G03X6024312Y-2341880I110654J0D01*
G03X5803005Y-2341880I-110654J0D01*
G37*
G36*
G01X6024346Y-150000D02*
G03X6275654Y-150000I125654J0D01*
G03X6024346Y-150000I-125654J0D01*
G37*
G36*
G01X6024346Y-2950000D02*
G03X6275654Y-2950000I125654J0D01*
G03X6024346Y-2950000I-125654J0D01*
G37*
%LPD*%
G36*
G01X4463562Y-546097D02*
G02X4463562Y-520697I0J12700D01*
G01X4489470Y-520697D01*
G02X4489470Y-546097I0J-12700D01*
G01X4463562Y-546097D01*
G37*
G36*
G01X6024346Y-162700D02*
G02X6024346Y-137300I0J12700D01*
G01X6050254Y-137300D01*
G02X6050254Y-162700I0J-12700D01*
G01X6024346Y-162700D01*
G37*
G36*
G01X6249746Y-162700D02*
G02X6249746Y-137300I0J12700D01*
G01X6275654Y-137300D01*
G02X6275654Y-162700I0J-12700D01*
G01X6249746Y-162700D01*
G37*
G36*
G01X6024346Y-2962700D02*
G02X6024346Y-2937300I0J12700D01*
G01X6050254Y-2937300D01*
G02X6050254Y-2962700I0J-12700D01*
G01X6024346Y-2962700D01*
G37*
G36*
G01X6249746Y-2962700D02*
G02X6249746Y-2937300I0J12700D01*
G01X6275654Y-2937300D01*
G02X6275654Y-2962700I0J-12700D01*
G01X6249746Y-2962700D01*
G37*
G36*
G01X-475654Y-2962700D02*
G02X-475654Y-2937300I0J12700D01*
G01X-449746Y-2937300D01*
G02X-449746Y-2962700I0J-12700D01*
G01X-475654Y-2962700D01*
G37*
G36*
G01X-475654Y-162700D02*
G02X-475654Y-137300I0J12700D01*
G01X-449746Y-137300D01*
G02X-449746Y-162700I0J-12700D01*
G01X-475654Y-162700D01*
G37*
G36*
G01X-250254Y-2962700D02*
G02X-250254Y-2937300I0J12700D01*
G01X-224346Y-2937300D01*
G02X-224346Y-2962700I0J-12700D01*
G01X-250254Y-2962700D01*
G37*
G36*
G01X-250254Y-162700D02*
G02X-250254Y-137300I0J12700D01*
G01X-224346Y-137300D01*
G02X-224346Y-162700I0J-12700D01*
G01X-250254Y-162700D01*
G37*
G36*
G01X105151Y-1524003D02*
G02X105151Y-1498603I0J12700D01*
G01X131059Y-1498603D01*
G02X131059Y-1524003I0J-12700D01*
G01X105151Y-1524003D01*
G37*
G36*
G01X-80249Y-1524003D02*
G02X-80249Y-1498603I0J12700D01*
G01X-54341Y-1498603D01*
G02X-54341Y-1524003I0J-12700D01*
G01X-80249Y-1524003D01*
G37*
G36*
G01X4648962Y-546097D02*
G02X4648962Y-520697I0J12700D01*
G01X4674870Y-520697D01*
G02X4674870Y-546097I0J-12700D01*
G01X4648962Y-546097D01*
G37*
G36*
G01X5373745Y-317500D02*
G02X5373745Y-292100I0J12700D01*
G01X5399653Y-292100D01*
G02X5399653Y-317500I0J-12700D01*
G01X5373745Y-317500D01*
G37*
G36*
G01X5569144Y-317500D02*
G02X5569144Y-292100I0J12700D01*
G01X5595052Y-292100D01*
G02X5595052Y-317500I0J-12700D01*
G01X5569144Y-317500D01*
G37*
G36*
G01X38105Y-1431557D02*
G02X12705Y-1431557I-12700J0D01*
G01X12705Y-1405649D01*
G02X38105Y-1405649I12700J0D01*
G01X38105Y-1431557D01*
G37*
G36*
G01X4581916Y-453652D02*
G02X4556516Y-453652I-12700J0D01*
G01X4556516Y-427744D01*
G02X4581916Y-427744I12700J0D01*
G01X4581916Y-453652D01*
G37*
G36*
G01X-337300Y-2850254D02*
G02X-362700Y-2850254I-12700J0D01*
G01X-362700Y-2824346D01*
G02X-337300Y-2824346I12700J0D01*
G01X-337300Y-2850254D01*
G37*
G36*
G01X-362700Y-3049746D02*
G02X-337300Y-3049746I12700J0D01*
G01X-337300Y-3075654D01*
G02X-362700Y-3075654I-12700J0D01*
G01X-362700Y-3049746D01*
G37*
G36*
G01X4556516Y-613143D02*
G02X4581916Y-613143I12700J0D01*
G01X4581916Y-639051D01*
G02X4556516Y-639051I-12700J0D01*
G01X4556516Y-613143D01*
G37*
G36*
G01X6162700Y-2850254D02*
G02X6137300Y-2850254I-12700J0D01*
G01X6137300Y-2824346D01*
G02X6162700Y-2824346I12700J0D01*
G01X6162700Y-2850254D01*
G37*
G36*
G01X6137300Y-3049746D02*
G02X6162700Y-3049746I12700J0D01*
G01X6162700Y-3075654D01*
G02X6137300Y-3075654I-12700J0D01*
G01X6137300Y-3049746D01*
G37*
G36*
G01X-362700Y-249746D02*
G02X-337300Y-249746I12700J0D01*
G01X-337300Y-275654D01*
G02X-362700Y-275654I-12700J0D01*
G01X-362700Y-249746D01*
G37*
G36*
G01X5471698Y-389546D02*
G02X5497098Y-389546I12700J0D01*
G01X5497098Y-415454D01*
G02X5471698Y-415454I-12700J0D01*
G01X5471698Y-389546D01*
G37*
G36*
G01X6137300Y-249746D02*
G02X6162700Y-249746I12700J0D01*
G01X6162700Y-275654D01*
G02X6137300Y-275654I-12700J0D01*
G01X6137300Y-249746D01*
G37*
G36*
G01X-337300Y-50254D02*
G02X-362700Y-50254I-12700J0D01*
G01X-362700Y-24346D01*
G02X-337300Y-24346I12700J0D01*
G01X-337300Y-50254D01*
G37*
G36*
G01X6162700Y-50254D02*
G02X6137300Y-50254I-12700J0D01*
G01X6137300Y-24346D01*
G02X6162700Y-24346I12700J0D01*
G01X6162700Y-50254D01*
G37*
G36*
G01X5497098Y-220054D02*
G02X5471698Y-220054I-12700J0D01*
G01X5471698Y-194146D01*
G02X5497098Y-194146I12700J0D01*
G01X5497098Y-220054D01*
G37*
G36*
G01X12705Y-1591048D02*
G02X38105Y-1591048I12700J0D01*
G01X38105Y-1616956D01*
G02X12705Y-1616956I-12700J0D01*
G01X12705Y-1591048D01*
G37*
G04 PlaneZone End*

G04 Pad Start*
G54D10*
G01X5663659Y-2341880D03*
G01X5913658Y-2341880D03*
G01X5663659Y-1656080D03*
G01X5913658Y-1656080D03*
G01X5234399Y-304800D03*
G01X5484398Y-304800D03*
G54D11*
G01X4219204Y-533397D03*
G01X4569216Y-533397D03*
G54D10*
G01X-190500Y-2110199D03*
G01X-190500Y-2360198D03*
G01X-190500Y-738599D03*
G01X-190500Y-988598D03*
G54D12*
G01X6150000Y-150000D03*
G01X6150000Y-2950000D03*
G01X-350000Y-150000D03*
G01X-350000Y-2950000D03*
G54D13*
G01X1257300Y-228600D03*
G54D12*
G01X1257300Y-482600D03*
G54D11*
G01X25405Y-1511303D03*
G01X279405Y-1511303D03*
G01X533405Y-1511303D03*
G01X787405Y-1511303D03*
G54D14*
G01X1041405Y-1511303D03*
G04 Pad End*

G04 Via Start*
G54D16*
G01X4094489Y-2045699D03*
G01X3667760Y-1958251D03*
G01X3667760Y-2138680D03*
G01X3502660Y-1109980D03*
G01X3919728Y-1008380D03*
G01X3920490Y-1198880D03*
G01X3348228Y-855980D03*
G01X4620260Y-1911383D03*
G01X5039360Y-1750060D03*
G01X5036400Y-2136140D03*
G01X4394200Y-1981200D03*
G01X1748465Y-1362487D03*
G01X904054Y-1879600D03*
G01X990600Y-1879600D03*
G01X812800Y-1879600D03*
G01X812800Y-508000D03*
G01X899160Y-508000D03*
G01X990600Y-508000D03*
G01X3502660Y-1021080D03*
G01X3502660Y-1198880D03*
G01X5142667Y-1321479D03*
G01X5112400Y-1750060D03*
G01X5112385Y-2136140D03*
G04 Via End*

M02*

