G04 Layer: TopSolderMaskLayer*
G04 EasyEDA Pro v2.2.45.4, 2026-02-21 16:02:54*
G04 Gerber Generator version 0.3*
G04 Scale: 100 percent, Rotated: No, Reflected: No*
G04 Dimensions in millimeters*
G04 Leading zeros omitted, absolute positions, 4 integers and 5 decimals*
G04 Generated by one-click*
%FSLAX45Y45*%
%MOMM*%
%AMRoundRect*1,1,$1,$2,$3*1,1,$1,$4,$5*1,1,$1,0-$2,0-$3*1,1,$1,0-$4,0-$5*20,1,$1,$2,$3,$4,$5,0*20,1,$1,$4,$5,0-$2,0-$3,0*20,1,$1,0-$2,0-$3,0-$4,0-$5,0*20,1,$1,0-$4,0-$5,$2,$3,0*4,1,4,$2,$3,$4,$5,0-$2,0-$3,0-$4,0-$5,$2,$3,0*%
%ADD10C,1.1016*%
%ADD11RoundRect,0.09495X-0.70833X0.67833X0.70833X0.67833*%
%ADD12C,1.8016*%
%ADD13O,1.4256X0.4096*%
%ADD14RoundRect,0.09645X-1.05363X0.90351X1.05363X0.90351*%
%ADD15RoundRect,0.09645X-1.05363X0.90356X1.05363X0.90356*%
%ADD16C,1.7016*%
%ADD17RoundRect,0.0938X-1.25396X0.55396X1.25396X0.55396*%
%ADD18RoundRect,0.09368X-1.25396X0.55396X1.25396X0.55396*%
%ADD19RoundRect,0.09754X-1.17203X1.80203X1.17203X1.80203*%
%ADD20RoundRect,0.09387X-0.69237X-0.57013X-0.69237X0.57013*%
%ADD21C,2.1016*%
%ADD22RoundRect,0.09691X-1.00234X-1.00234X-1.00234X1.00234*%
%ADD23RoundRect,0.09585X-1.00287X0.79938X1.00287X0.79938*%
%ADD24RoundRect,0.09588X-0.80286X0.80286X0.80286X0.80286*%
G75*


G04 Pad Start*
G54D10*
G01X1409700Y-1358900D03*
G01X3403600Y-2108200D03*
G01X3403600Y-2628900D03*
G01X3403600Y-1866900D03*
G01X3390900Y-1612900D03*
G01X3390900Y-1358900D03*
G01X3403600Y-2374900D03*
G54D11*
G01X3978580Y-1960880D03*
G01X3778580Y-1960880D03*
G01X3978580Y-2138680D03*
G01X3778580Y-2138680D03*
G01X3605860Y-1198880D03*
G01X3805860Y-1198880D03*
G01X3605860Y-1021080D03*
G01X3805860Y-1021080D03*
G54D12*
G01X5663659Y-2341880D03*
G01X5913658Y-2341880D03*
G01X5663659Y-1656080D03*
G01X5913658Y-1656080D03*
G54D13*
G01X5217770Y-2305685D03*
G01X5217770Y-2240686D03*
G01X5217770Y-2175688D03*
G01X5217770Y-2110689D03*
G01X5217770Y-2045691D03*
G01X5217770Y-1980667D03*
G01X5217770Y-1915668D03*
G01X5217770Y-1850669D03*
G01X5217770Y-1785671D03*
G01X5217770Y-1720672D03*
G01X5217770Y-1655674D03*
G01X5217770Y-1590675D03*
G01X4505350Y-2305685D03*
G01X4505350Y-2240686D03*
G01X4505350Y-2175688D03*
G01X4505350Y-2110689D03*
G01X4505350Y-2045691D03*
G01X4505350Y-1980667D03*
G01X4505350Y-1915668D03*
G01X4505350Y-1850669D03*
G01X4505350Y-1785671D03*
G01X4505350Y-1720672D03*
G01X4505350Y-1655674D03*
G01X4505350Y-1590675D03*
G54D14*
G01X1597660Y-601980D03*
G01X1597660Y-855980D03*
G01X1597660Y-1109980D03*
G54D15*
G01X1597660Y-1363980D03*
G01X1597660Y-1617980D03*
G01X1597660Y-1871980D03*
G01X1597660Y-2125980D03*
G01X1597660Y-2379980D03*
G01X3197860Y-2379980D03*
G01X3197860Y-2125980D03*
G01X3197860Y-1871980D03*
G01X3197860Y-1617980D03*
G01X3197860Y-1363980D03*
G54D14*
G01X3197860Y-1109980D03*
G01X3197860Y-855980D03*
G01X3197860Y-601980D03*
G54D15*
G01X1597660Y-2633980D03*
G01X3197860Y-2633980D03*
G54D12*
G01X5234399Y-304800D03*
G01X5484398Y-304800D03*
G54D16*
G01X4219204Y-533397D03*
G01X4569216Y-533397D03*
G54D12*
G01X-190500Y-2110199D03*
G01X-190500Y-2360198D03*
G01X-190500Y-738599D03*
G01X-190500Y-988598D03*
G54D18*
G01X904055Y-2442337D03*
G01X904055Y-2212340D03*
G01X904055Y-1982343D03*
G54D19*
G01X310063Y-2212340D03*
G54D18*
G01X898975Y-1070737D03*
G01X898975Y-840740D03*
G01X898975Y-610743D03*
G54D19*
G01X304983Y-840740D03*
G54D20*
G01X1270000Y-2640000D03*
G01X1270000Y-2440000D03*
G01X1270000Y-839800D03*
G01X1270000Y-1039800D03*
G54D21*
G01X6150000Y-150000D03*
G01X6150000Y-2950000D03*
G01X-350000Y-150000D03*
G01X-350000Y-2950000D03*
G54D22*
G01X1257300Y-228600D03*
G54D21*
G01X1257300Y-482600D03*
G54D23*
G01X3333293Y-203200D03*
G01X3753307Y-203200D03*
G54D16*
G01X25405Y-1511303D03*
G01X279405Y-1511303D03*
G01X533405Y-1511303D03*
G01X787405Y-1511303D03*
G54D24*
G01X1041405Y-1511303D03*
G54D11*
G01X5012580Y-1321479D03*
G01X4812580Y-1321479D03*
G04 Pad End*

M02*

