G04 Layer: TopLayer*
G04 EasyEDA Pro v2.2.45.4, 2026-01-28 09:00:24*
G04 Gerber Generator version 0.3*
G04 Scale: 100 percent, Rotated: No, Reflected: No*
G04 Dimensions in millimeters*
G04 Leading zeros omitted, absolute positions, 4 integers and 5 decimals*
G04 Generated by one-click*
%FSLAX45Y45*%
%MOMM*%
%ADD10R,1.41X1.35001*%
%ADD11C,1.7*%
%ADD12O,1.324X0.308*%
%ADD13R,2.1021X1.80188*%
%ADD14R,2.1021X1.80198*%
%ADD15C,1.6*%
%ADD16R,2.5078X1.1*%
%ADD17R,2.49999X1.1*%
%ADD18R,2.34X3.59999*%
%ADD19R,1.13254X1.37701*%
%ADD20C,2.0*%
%ADD21C,0.61*%
%ADD22C,0.508*%
%ADD23C,1.016*%
%ADD24C,0.762*%
%ADD25C,0.254*%
%ADD26C,0.2794*%
G75*


G04 Rect Start*
G36*
G01X3611880Y-2189480D02*
G01X3611880Y-1859280D01*
G01X3840480Y-1859280D01*
G01X3840480Y-2189480D01*
G01X3611880Y-2189480D01*
G37*
G36*
G01X3332480Y-2189480D02*
G01X3332480Y-1859280D01*
G01X3561080Y-1859280D01*
G01X3561080Y-2189480D01*
G01X3332480Y-2189480D01*
G37*
G36*
G01X3329759Y-1276540D02*
G01X3329759Y-946340D01*
G01X3558359Y-946340D01*
G01X3558359Y-1276540D01*
G01X3329759Y-1276540D01*
G37*
G36*
G01X3599288Y-1276540D02*
G01X3599288Y-946340D01*
G01X3827888Y-946340D01*
G01X3827888Y-1276540D01*
G01X3599288Y-1276540D01*
G37*
G36*
G01X3078588Y-919480D02*
G01X3078588Y-755840D01*
G01X3388360Y-755840D01*
G01X3388360Y-919480D01*
G01X3078588Y-919480D01*
G37*
G36*
G01X3947160Y-1974914D02*
G01X3947160Y-1870710D01*
G01X4163060Y-1870710D01*
G01X4163060Y-1974914D01*
G01X3947160Y-1974914D01*
G37*
G36*
G01X4588510Y-1779270D02*
G01X4588510Y-1675130D01*
G01X4810760Y-1675130D01*
G01X4810760Y-1779270D01*
G01X4588510Y-1779270D01*
G37*
G36*
G01X4588510Y-2167890D02*
G01X4588510Y-2063750D01*
G01X4810760Y-2063750D01*
G01X4810760Y-2167890D01*
G01X4588510Y-2167890D01*
G37*
G36*
G01X3947160Y-1656080D02*
G01X3947160Y-1541780D01*
G01X4099560Y-1541780D01*
G01X4099560Y-1656080D01*
G01X3947160Y-1656080D01*
G37*
G36*
G01X4658360Y-1657414D02*
G01X4658360Y-1540510D01*
G01X4810760Y-1540510D01*
G01X4810760Y-1657414D01*
G01X4658360Y-1657414D01*
G37*
G36*
G01X4658360Y-1916047D02*
G01X4658360Y-1799142D01*
G01X4810760Y-1799142D01*
G01X4810760Y-1916047D01*
G01X4658360Y-1916047D01*
G37*
G36*
G01X4658360Y-2048574D02*
G01X4658360Y-1931670D01*
G01X4810760Y-1931670D01*
G01X4810760Y-2048574D01*
G01X4658360Y-2048574D01*
G37*
G36*
G01X4657090Y-2305114D02*
G01X4657090Y-2188210D01*
G01X4809490Y-2188210D01*
G01X4809490Y-2305114D01*
G01X4657090Y-2305114D01*
G37*
G36*
G01X1110034Y-356140D02*
G01X1110034Y-151860D01*
G01X1374086Y-151860D01*
G01X1374086Y-356140D01*
G01X1110034Y-356140D01*
G37*
G36*
G01X1114928Y-1929955D02*
G01X1114928Y-1725676D01*
G01X1378980Y-1725676D01*
G01X1378980Y-1929955D01*
G01X1114928Y-1929955D01*
G37*
G04 Rect End*

G04 Pad Start*
G54D10*
G01X3686480Y-1935480D03*
G01X3486480Y-1935480D03*
G01X3686480Y-2113280D03*
G01X3486480Y-2113280D03*
G01X3478860Y-1198880D03*
G01X3678860Y-1198880D03*
G01X3478860Y-1021080D03*
G01X3678860Y-1021080D03*
G54D11*
G01X5181059Y-2316480D03*
G01X5431058Y-2316480D03*
G01X5181059Y-1630680D03*
G01X5431058Y-1630680D03*
G54D12*
G01X4735170Y-2280285D03*
G01X4735170Y-2215286D03*
G01X4735170Y-2150288D03*
G01X4735170Y-2085289D03*
G01X4735170Y-2020291D03*
G01X4735170Y-1955267D03*
G01X4735170Y-1890268D03*
G01X4735170Y-1825269D03*
G01X4735170Y-1760271D03*
G01X4735170Y-1695272D03*
G01X4735170Y-1630274D03*
G01X4735170Y-1565275D03*
G01X4022750Y-2280285D03*
G01X4022750Y-2215286D03*
G01X4022750Y-2150288D03*
G01X4022750Y-2085289D03*
G01X4022750Y-2020291D03*
G01X4022750Y-1955267D03*
G01X4022750Y-1890268D03*
G01X4022750Y-1825269D03*
G01X4022750Y-1760271D03*
G01X4022750Y-1695272D03*
G01X4022750Y-1630274D03*
G01X4022750Y-1565275D03*
G54D13*
G01X1597660Y-601980D03*
G01X1597660Y-855980D03*
G01X1597660Y-1109980D03*
G54D14*
G01X1597660Y-1363980D03*
G01X1597660Y-1617980D03*
G01X1597660Y-1871980D03*
G01X1597660Y-2125980D03*
G01X1597660Y-2379980D03*
G01X3197860Y-2379980D03*
G01X3197860Y-2125980D03*
G01X3197860Y-1871980D03*
G01X3197860Y-1617980D03*
G01X3197860Y-1363980D03*
G54D13*
G01X3197860Y-1109980D03*
G01X3197860Y-855980D03*
G01X3197860Y-601980D03*
G54D14*
G01X1597660Y-2633980D03*
G01X3197860Y-2633980D03*
G54D11*
G01X3618959Y-487680D03*
G01X3868958Y-487680D03*
G54D15*
G01X4356364Y-1059177D03*
G01X4706376Y-1059177D03*
G54D11*
G01X401320Y-2592799D03*
G01X401320Y-2842798D03*
G01X406400Y-1017999D03*
G01X406400Y-1267998D03*
G54D17*
G01X1246955Y-2328037D03*
G01X1246955Y-2098040D03*
G01X1246955Y-1868043D03*
G54D18*
G01X652963Y-2098040D03*
G54D17*
G01X1241875Y-753237D03*
G01X1241875Y-523240D03*
G01X1241875Y-293243D03*
G54D18*
G01X647883Y-523240D03*
G54D19*
G01X1344600Y-2631440D03*
G01X1144600Y-2631440D03*
G01X1328805Y-1112289D03*
G01X1128805Y-1112289D03*
G54D20*
G01X-304920Y-185420D03*
G01X-304800Y-2900680D03*
G01X5999480Y-185420D03*
G01X5999480Y-2900680D03*
G04 Pad End*

G04 Via Start*
G54D21*
G01X3802380Y-2020291D03*
G01X3375660Y-1932851D03*
G01X3375660Y-2113280D03*
G01X3362960Y-1109980D03*
G01X3792728Y-1008380D03*
G01X3793490Y-1198880D03*
G01X3348228Y-855980D03*
G01X4124960Y-1924082D03*
G01X4632960Y-1724660D03*
G01X4629785Y-2110740D03*
G01X3348665Y-2377440D03*
G01X4135221Y-2150288D03*
G01X1168400Y-1762760D03*
G01X1330960Y-1762760D03*
G01X1158240Y-193040D03*
G01X1320800Y-193040D03*
G04 Via End*

G04 Track Start*
G54D22*
G01X3197860Y-1109980D02*
G01X3362960Y-1109980D01*
G54D23*
G01X4356364Y-1059177D02*
G01X4353624Y-1056437D01*
G54D24*
G01X4022750Y-1208703D02*
G01X4175016Y-1056437D01*
G01X4022750Y-1565275D02*
G01X4022750Y-1208703D01*
G01X4050055Y-1592580D02*
G01X4022750Y-1565275D01*
G01X4188460Y-1592580D02*
G01X4050055Y-1592580D01*
G01X4277360Y-2214880D02*
G01X4277360Y-1681480D01*
G01X4211955Y-2280285D02*
G01X4277360Y-2214880D01*
G54D22*
G01X5181059Y-1630680D02*
G01X5150579Y-1600200D01*
G01X5431058Y-1630680D02*
G01X5207538Y-1854200D01*
G54D24*
G01X4277360Y-1681480D02*
G01X4188460Y-1592580D01*
G01X4105709Y-2280285D02*
G01X4211955Y-2280285D01*
G54D22*
G01X5207538Y-1854200D02*
G01X4729480Y-1854200D01*
G01X5150579Y-1600200D02*
G01X4729480Y-1600200D01*
G54D25*
G01X3197860Y-1363980D02*
G01X3543300Y-1363980D01*
G01X3878100Y-1698780D01*
G01X4022750Y-1698780D01*
G01X4022750Y-1760271D02*
G01X3477311Y-1760271D01*
G01X3335020Y-1617980D02*
G01X3197860Y-1617980D01*
G01X3477311Y-1760271D02*
G01X3335020Y-1617980D01*
G01X4022750Y-1825269D02*
G01X4014061Y-1816580D01*
G01X3253260Y-1816580D02*
G01X3197860Y-1871980D01*
G01X4014061Y-1816580D02*
G01X3253260Y-1816580D01*
G54D26*
G01X3802380Y-2020291D02*
G01X4022750Y-2020291D01*
G54D25*
G01X3858167Y-2232180D02*
G01X3883180Y-2207167D01*
G01X3883180Y-2133600D01*
G01X3197860Y-2125980D02*
G01X3304060Y-2232180D01*
G01X3858167Y-2232180D01*
G01X3883180Y-2133600D02*
G01X3931491Y-2085289D01*
G01X4022750Y-2085289D01*
G01X3604057Y-2633980D02*
G01X3197860Y-2633980D01*
G01X3928650Y-2262350D02*
G01X3928650Y-2309387D01*
G01X3604057Y-2633980D01*
G01X3197860Y-2379980D02*
G01X3346125Y-2379980D01*
G01X3348665Y-2377440D01*
G01X4022750Y-2150288D02*
G01X4135221Y-2150288D01*
G54D22*
G01X5431058Y-2316480D02*
G01X5100858Y-1986280D01*
G01X4734560Y-1986280D01*
G01X5181059Y-2316480D02*
G01X5109939Y-2245360D01*
G01X4734560Y-2245360D01*
G54D24*
G01X3197860Y-601980D02*
G01X3504659Y-601980D01*
G01X3618959Y-487680D01*
G01X4187716Y-1056437D02*
G01X3618959Y-487680D01*
G54D23*
G01X4175016Y-1056437D02*
G01X4187716Y-1056437D01*
G01X4353624Y-1056437D02*
G01X4187716Y-1056437D01*
G54D25*
G01X4022750Y-2215286D02*
G01X3975713Y-2215286D01*
G01X3928650Y-2262350D01*
G54D24*
G01X193040Y-804639D02*
G01X406400Y-1017999D01*
G01X401320Y-2592799D02*
G01X193040Y-2384519D01*
G01X193040Y-804639D01*
G01X406400Y-1267998D02*
G01X647883Y-1026516D01*
G01X647883Y-523240D01*
G01X401320Y-2842798D02*
G01X652963Y-2591156D01*
G01X652963Y-2098040D01*
G01X1246955Y-2098040D02*
G01X652963Y-2098040D01*
G01X1241875Y-523240D02*
G01X647883Y-523240D01*
G54D25*
G01X1597660Y-2633980D02*
G01X1595120Y-2631440D01*
G01X1344600Y-2631440D01*
G01X1144600Y-2631440D02*
G01X1246955Y-2529086D01*
G01X1246955Y-2328037D01*
G01X1597660Y-1109980D02*
G01X1331114Y-1109980D01*
G01X1328805Y-1112289D01*
G01X1128805Y-1112289D02*
G01X1241875Y-999219D01*
G01X1241875Y-753237D01*
G54D24*
G01X3618959Y-487680D02*
G01X3166359Y-35080D01*
G01X360680Y-35080D01*
G01X193040Y-202720D02*
G01X193040Y-804639D01*
G01X193040Y-202720D02*
G01X360680Y-35080D01*
G04 Track End*

M02*

