G04 Layer: TopSolderMaskLayer*
G04 EasyEDA Pro v2.2.45.4, 2026-01-28 09:00:24*
G04 Gerber Generator version 0.3*
G04 Scale: 100 percent, Rotated: No, Reflected: No*
G04 Dimensions in millimeters*
G04 Leading zeros omitted, absolute positions, 4 integers and 5 decimals*
G04 Generated by one-click*
%FSLAX45Y45*%
%MOMM*%
%AMRoundRect*1,1,$1,$2,$3*1,1,$1,$4,$5*1,1,$1,0-$2,0-$3*1,1,$1,0-$4,0-$5*20,1,$1,$2,$3,$4,$5,0*20,1,$1,$4,$5,0-$2,0-$3,0*20,1,$1,0-$2,0-$3,0-$4,0-$5,0*20,1,$1,0-$4,0-$5,$2,$3,0*4,1,4,$2,$3,$4,$5,0-$2,0-$3,0-$4,0-$5,$2,$3,0*%
%ADD10RoundRect,0.09495X-0.70833X0.67833X0.70833X0.67833*%
%ADD11C,1.8016*%
%ADD12O,1.4256X0.4096*%
%ADD13RoundRect,0.09645X-1.05363X0.90351X1.05363X0.90351*%
%ADD14RoundRect,0.09645X-1.05363X0.90356X1.05363X0.90356*%
%ADD15C,1.7016*%
%ADD16RoundRect,0.0929X-1.25396X0.55396X1.25396X0.55396*%
%ADD17RoundRect,0.09368X-1.25396X0.55396X1.25396X0.55396*%
%ADD18RoundRect,0.09754X-1.17203X1.80203X1.17203X1.80203*%
%ADD19RoundRect,0.09387X-0.57013X0.69237X0.57013X0.69237*%
%ADD20C,2.1016*%
G75*


G04 Pad Start*
G54D10*
G01X3686480Y-1935480D03*
G01X3486480Y-1935480D03*
G01X3686480Y-2113280D03*
G01X3486480Y-2113280D03*
G01X3478860Y-1198880D03*
G01X3678860Y-1198880D03*
G01X3478860Y-1021080D03*
G01X3678860Y-1021080D03*
G54D11*
G01X5181059Y-2316480D03*
G01X5431058Y-2316480D03*
G01X5181059Y-1630680D03*
G01X5431058Y-1630680D03*
G54D12*
G01X4735170Y-2280285D03*
G01X4735170Y-2215286D03*
G01X4735170Y-2150288D03*
G01X4735170Y-2085289D03*
G01X4735170Y-2020291D03*
G01X4735170Y-1955267D03*
G01X4735170Y-1890268D03*
G01X4735170Y-1825269D03*
G01X4735170Y-1760271D03*
G01X4735170Y-1695272D03*
G01X4735170Y-1630274D03*
G01X4735170Y-1565275D03*
G01X4022750Y-2280285D03*
G01X4022750Y-2215286D03*
G01X4022750Y-2150288D03*
G01X4022750Y-2085289D03*
G01X4022750Y-2020291D03*
G01X4022750Y-1955267D03*
G01X4022750Y-1890268D03*
G01X4022750Y-1825269D03*
G01X4022750Y-1760271D03*
G01X4022750Y-1695272D03*
G01X4022750Y-1630274D03*
G01X4022750Y-1565275D03*
G54D13*
G01X1597660Y-601980D03*
G01X1597660Y-855980D03*
G01X1597660Y-1109980D03*
G54D14*
G01X1597660Y-1363980D03*
G01X1597660Y-1617980D03*
G01X1597660Y-1871980D03*
G01X1597660Y-2125980D03*
G01X1597660Y-2379980D03*
G01X3197860Y-2379980D03*
G01X3197860Y-2125980D03*
G01X3197860Y-1871980D03*
G01X3197860Y-1617980D03*
G01X3197860Y-1363980D03*
G54D13*
G01X3197860Y-1109980D03*
G01X3197860Y-855980D03*
G01X3197860Y-601980D03*
G54D14*
G01X1597660Y-2633980D03*
G01X3197860Y-2633980D03*
G54D11*
G01X3618959Y-487680D03*
G01X3868958Y-487680D03*
G54D15*
G01X4356364Y-1059177D03*
G01X4706376Y-1059177D03*
G54D11*
G01X401320Y-2592799D03*
G01X401320Y-2842798D03*
G01X406400Y-1017999D03*
G01X406400Y-1267998D03*
G54D17*
G01X1246955Y-2328037D03*
G01X1246955Y-2098040D03*
G01X1246955Y-1868043D03*
G54D18*
G01X652963Y-2098040D03*
G54D17*
G01X1241875Y-753237D03*
G01X1241875Y-523240D03*
G01X1241875Y-293243D03*
G54D18*
G01X647883Y-523240D03*
G54D19*
G01X1344600Y-2631440D03*
G01X1144600Y-2631440D03*
G01X1328805Y-1112289D03*
G01X1128805Y-1112289D03*
G54D20*
G01X-304920Y-185420D03*
G01X-304800Y-2900680D03*
G01X5999480Y-185420D03*
G01X5999480Y-2900680D03*
G04 Pad End*

M02*

