G04 Layer: BottomLayer*
G04 EasyEDA Pro v2.2.45.4, 2026-01-28 09:00:24*
G04 Gerber Generator version 0.3*
G04 Scale: 100 percent, Rotated: No, Reflected: No*
G04 Dimensions in millimeters*
G04 Leading zeros omitted, absolute positions, 4 integers and 5 decimals*
G04 Generated by one-click*
%FSLAX45Y45*%
%MOMM*%
%ADD10C,0.2032*%
%ADD11C,0.254*%
%ADD12C,1.7*%
%ADD13C,1.6*%
%ADD14C,2.0*%
%ADD15C,0.6188*%
%ADD16C,0.61*%
G75*


G04 Copper Start*
G36*
G01X1742186Y-2616200D02*
G01X1742186Y-3089840D01*
G01X-271400Y-3089840D01*
G01X-299912Y-3087971D01*
G01X-327936Y-3082397D01*
G01X-354993Y-3073212D01*
G01X-380620Y-3060575D01*
G01X-404378Y-3044700D01*
G01X-425860Y-3025861D01*
G01X-444700Y-3004378D01*
G01X-460575Y-2980620D01*
G01X-473212Y-2954994D01*
G01X-482397Y-2927937D01*
G01X-487819Y-2900680D01*
G01X-440614Y-2900680D01*
G01X-438762Y-2923034D01*
G01X-433255Y-2944779D01*
G01X-424245Y-2965320D01*
G01X-411976Y-2984099D01*
G01X-396784Y-3000602D01*
G01X-379083Y-3014379D01*
G01X-359356Y-3025055D01*
G01X-338140Y-3032338D01*
G01X-316015Y-3036030D01*
G01X-293585Y-3036030D01*
G01X-271460Y-3032338D01*
G01X-250244Y-3025055D01*
G01X-230517Y-3014379D01*
G01X-212816Y-3000602D01*
G01X-197624Y-2984099D01*
G01X-185355Y-2965320D01*
G01X-176345Y-2944779D01*
G01X-170838Y-2923034D01*
G01X-168986Y-2900680D01*
G01X-170838Y-2878326D01*
G01X-176345Y-2856581D01*
G01X-182390Y-2842798D01*
G01X280506Y-2842798D01*
G01X282342Y-2863778D01*
G01X287792Y-2884119D01*
G01X296692Y-2903205D01*
G01X308771Y-2920456D01*
G01X323662Y-2935347D01*
G01X340913Y-2947426D01*
G01X359999Y-2956326D01*
G01X380341Y-2961777D01*
G01X401320Y-2963612D01*
G01X422299Y-2961777D01*
G01X442641Y-2956326D01*
G01X461727Y-2947426D01*
G01X478978Y-2935347D01*
G01X493869Y-2920456D01*
G01X505948Y-2903205D01*
G01X514848Y-2884119D01*
G01X520298Y-2863778D01*
G01X522134Y-2842798D01*
G01X520298Y-2821819D01*
G01X514848Y-2801478D01*
G01X505948Y-2782392D01*
G01X493869Y-2765141D01*
G01X478978Y-2750250D01*
G01X461727Y-2738171D01*
G01X442641Y-2729271D01*
G01X422299Y-2723820D01*
G01X401320Y-2721985D01*
G01X401320Y-2721985D01*
G01X380341Y-2723820D01*
G01X359999Y-2729271D01*
G01X340913Y-2738171D01*
G01X323662Y-2750250D01*
G01X308771Y-2765141D01*
G01X296692Y-2782392D01*
G01X287792Y-2801478D01*
G01X282342Y-2821819D01*
G01X280506Y-2842798D01*
G01X-182390Y-2842798D01*
G01X-185355Y-2836040D01*
G01X-197624Y-2817261D01*
G01X-212816Y-2800758D01*
G01X-230517Y-2786981D01*
G01X-250244Y-2776305D01*
G01X-271460Y-2769022D01*
G01X-293585Y-2765330D01*
G01X-316015Y-2765330D01*
G01X-338140Y-2769022D01*
G01X-359356Y-2776305D01*
G01X-379083Y-2786981D01*
G01X-396784Y-2800758D01*
G01X-411976Y-2817261D01*
G01X-424245Y-2836040D01*
G01X-433255Y-2856581D01*
G01X-438762Y-2878326D01*
G01X-440614Y-2900680D01*
G01X-440614Y-2900680D01*
G01X-487819Y-2900680D01*
G01X-487971Y-2899912D01*
G01X-489840Y-2871400D01*
G01X-489840Y-2592799D01*
G01X280506Y-2592799D01*
G01X282342Y-2613778D01*
G01X287792Y-2634120D01*
G01X296692Y-2653206D01*
G01X308771Y-2670457D01*
G01X323662Y-2685348D01*
G01X340913Y-2697427D01*
G01X359999Y-2706327D01*
G01X380341Y-2711777D01*
G01X401320Y-2713613D01*
G01X422299Y-2711777D01*
G01X442641Y-2706327D01*
G01X461727Y-2697427D01*
G01X478978Y-2685348D01*
G01X493869Y-2670457D01*
G01X505948Y-2653206D01*
G01X514848Y-2634120D01*
G01X520298Y-2613778D01*
G01X522134Y-2592799D01*
G01X520298Y-2571820D01*
G01X514848Y-2551478D01*
G01X505948Y-2532392D01*
G01X493869Y-2515141D01*
G01X478978Y-2500250D01*
G01X461727Y-2488171D01*
G01X442641Y-2479271D01*
G01X422299Y-2473821D01*
G01X401320Y-2471985D01*
G01X401320Y-2471985D01*
G01X380341Y-2473821D01*
G01X359999Y-2479271D01*
G01X340913Y-2488171D01*
G01X323662Y-2500250D01*
G01X308771Y-2515141D01*
G01X296692Y-2532392D01*
G01X287792Y-2551478D01*
G01X282342Y-2571820D01*
G01X280506Y-2592799D01*
G01X-489840Y-2592799D01*
G01X-489840Y-2377440D01*
G01X3282351Y-2377440D01*
G01X3284129Y-2392693D01*
G01X3289368Y-2407129D01*
G01X3297787Y-2419972D01*
G01X3308935Y-2430534D01*
G01X3322213Y-2438250D01*
G01X3336909Y-2442704D01*
G01X3352236Y-2443658D01*
G01X3367372Y-2441061D01*
G01X3381504Y-2435052D01*
G01X3393875Y-2425954D01*
G01X3908069Y-2425954D01*
G01X3920625Y-2424301D01*
G01X3932326Y-2419454D01*
G01X3942373Y-2411745D01*
G01X4037638Y-2316480D01*
G01X5060245Y-2316480D01*
G01X5062081Y-2337459D01*
G01X5067531Y-2357801D01*
G01X5076431Y-2376887D01*
G01X5088510Y-2394138D01*
G01X5103401Y-2409029D01*
G01X5120652Y-2421108D01*
G01X5139738Y-2430008D01*
G01X5160080Y-2435458D01*
G01X5181059Y-2437294D01*
G01X5202038Y-2435458D01*
G01X5222380Y-2430008D01*
G01X5241466Y-2421108D01*
G01X5258717Y-2409029D01*
G01X5273608Y-2394138D01*
G01X5285687Y-2376887D01*
G01X5294587Y-2357801D01*
G01X5300037Y-2337459D01*
G01X5301873Y-2316480D01*
G01X5310245Y-2316480D01*
G01X5312080Y-2337459D01*
G01X5317531Y-2357801D01*
G01X5326431Y-2376887D01*
G01X5338510Y-2394138D01*
G01X5353401Y-2409029D01*
G01X5370652Y-2421108D01*
G01X5389738Y-2430008D01*
G01X5410079Y-2435458D01*
G01X5431058Y-2437294D01*
G01X5452038Y-2435458D01*
G01X5472379Y-2430008D01*
G01X5491465Y-2421108D01*
G01X5508716Y-2409029D01*
G01X5523607Y-2394138D01*
G01X5535686Y-2376887D01*
G01X5544586Y-2357801D01*
G01X5550037Y-2337459D01*
G01X5551872Y-2316480D01*
G01X5550037Y-2295501D01*
G01X5544586Y-2275159D01*
G01X5535686Y-2256073D01*
G01X5523607Y-2238822D01*
G01X5508716Y-2223931D01*
G01X5491465Y-2211852D01*
G01X5472379Y-2202952D01*
G01X5452038Y-2197502D01*
G01X5431058Y-2195666D01*
G01X5410079Y-2197502D01*
G01X5389738Y-2202952D01*
G01X5370652Y-2211852D01*
G01X5353401Y-2223931D01*
G01X5338510Y-2238822D01*
G01X5326431Y-2256073D01*
G01X5317531Y-2275159D01*
G01X5312080Y-2295501D01*
G01X5310245Y-2316480D01*
G01X5310245Y-2316480D01*
G01X5301873Y-2316480D01*
G01X5300037Y-2295501D01*
G01X5294587Y-2275159D01*
G01X5285687Y-2256073D01*
G01X5273608Y-2238822D01*
G01X5258717Y-2223931D01*
G01X5241466Y-2211852D01*
G01X5222380Y-2202952D01*
G01X5202038Y-2197502D01*
G01X5181059Y-2195666D01*
G01X5160080Y-2197502D01*
G01X5139738Y-2202952D01*
G01X5120652Y-2211852D01*
G01X5103401Y-2223931D01*
G01X5088510Y-2238822D01*
G01X5076431Y-2256073D01*
G01X5067531Y-2275159D01*
G01X5062081Y-2295501D01*
G01X5060245Y-2316480D01*
G01X5060245Y-2316480D01*
G01X4037638Y-2316480D01*
G01X4137557Y-2216561D01*
G01X4152738Y-2214246D01*
G01X4166980Y-2208502D01*
G01X4179519Y-2199636D01*
G01X4189682Y-2188123D01*
G01X4196925Y-2174582D01*
G01X4200858Y-2159737D01*
G01X4201272Y-2144386D01*
G01X4198143Y-2129352D01*
G01X4191640Y-2115440D01*
G01X4182112Y-2103397D01*
G01X4170069Y-2093868D01*
G01X4156157Y-2087365D01*
G01X4141122Y-2084237D01*
G01X4125771Y-2084650D01*
G01X4110927Y-2088584D01*
G01X4097385Y-2095827D01*
G01X4085873Y-2105990D01*
G01X4077007Y-2118528D01*
G01X4071262Y-2132770D01*
G01X4068948Y-2147952D01*
G01X3887973Y-2328926D01*
G01X3887973Y-2328926D01*
G01X3393875Y-2328926D01*
G01X3381504Y-2319828D01*
G01X3367372Y-2313819D01*
G01X3352236Y-2311222D01*
G01X3336909Y-2312176D01*
G01X3322213Y-2316630D01*
G01X3308935Y-2324346D01*
G01X3297787Y-2334908D01*
G01X3289368Y-2347751D01*
G01X3284129Y-2362187D01*
G01X3282351Y-2377440D01*
G01X-489840Y-2377440D01*
G01X-489840Y-2020291D01*
G01X3736066Y-2020291D01*
G01X3737993Y-2036161D01*
G01X3743662Y-2051108D01*
G01X3752743Y-2064265D01*
G01X3764709Y-2074866D01*
G01X3778865Y-2082295D01*
G01X3794387Y-2086121D01*
G01X3810373Y-2086121D01*
G01X3825895Y-2082295D01*
G01X3840051Y-2074866D01*
G01X3852017Y-2064265D01*
G01X3861098Y-2051108D01*
G01X3866767Y-2036161D01*
G01X3868694Y-2020291D01*
G01X3866767Y-2004421D01*
G01X3861098Y-1989473D01*
G01X3852017Y-1976316D01*
G01X3840051Y-1965715D01*
G01X3825895Y-1958286D01*
G01X3810373Y-1954460D01*
G01X3794387Y-1954460D01*
G01X3778865Y-1958286D01*
G01X3764709Y-1965715D01*
G01X3752743Y-1976316D01*
G01X3743662Y-1989473D01*
G01X3737993Y-2004421D01*
G01X3736066Y-2020291D01*
G01X3736066Y-2020291D01*
G01X-489840Y-2020291D01*
G01X-489840Y-1630680D01*
G01X5060245Y-1630680D01*
G01X5062081Y-1651659D01*
G01X5067531Y-1672001D01*
G01X5076431Y-1691087D01*
G01X5088510Y-1708338D01*
G01X5103401Y-1723229D01*
G01X5120652Y-1735308D01*
G01X5139738Y-1744208D01*
G01X5160080Y-1749658D01*
G01X5181059Y-1751494D01*
G01X5202038Y-1749658D01*
G01X5222380Y-1744208D01*
G01X5241466Y-1735308D01*
G01X5258717Y-1723229D01*
G01X5273608Y-1708338D01*
G01X5285687Y-1691087D01*
G01X5294587Y-1672001D01*
G01X5300037Y-1651659D01*
G01X5301873Y-1630680D01*
G01X5310245Y-1630680D01*
G01X5312080Y-1651659D01*
G01X5317531Y-1672001D01*
G01X5326431Y-1691087D01*
G01X5338510Y-1708338D01*
G01X5353401Y-1723229D01*
G01X5370652Y-1735308D01*
G01X5389738Y-1744208D01*
G01X5410079Y-1749658D01*
G01X5431058Y-1751494D01*
G01X5452038Y-1749658D01*
G01X5472379Y-1744208D01*
G01X5491465Y-1735308D01*
G01X5508716Y-1723229D01*
G01X5523607Y-1708338D01*
G01X5535686Y-1691087D01*
G01X5544586Y-1672001D01*
G01X5550037Y-1651659D01*
G01X5551872Y-1630680D01*
G01X5550037Y-1609701D01*
G01X5544586Y-1589359D01*
G01X5535686Y-1570273D01*
G01X5523607Y-1553022D01*
G01X5508716Y-1538131D01*
G01X5491465Y-1526052D01*
G01X5472379Y-1517152D01*
G01X5452038Y-1511702D01*
G01X5431058Y-1509866D01*
G01X5410079Y-1511702D01*
G01X5389738Y-1517152D01*
G01X5370652Y-1526052D01*
G01X5353401Y-1538131D01*
G01X5338510Y-1553022D01*
G01X5326431Y-1570273D01*
G01X5317531Y-1589359D01*
G01X5312080Y-1609701D01*
G01X5310245Y-1630680D01*
G01X5310245Y-1630680D01*
G01X5301873Y-1630680D01*
G01X5300037Y-1609701D01*
G01X5294587Y-1589359D01*
G01X5285687Y-1570273D01*
G01X5273608Y-1553022D01*
G01X5258717Y-1538131D01*
G01X5241466Y-1526052D01*
G01X5222380Y-1517152D01*
G01X5202038Y-1511702D01*
G01X5181059Y-1509866D01*
G01X5160080Y-1511702D01*
G01X5139738Y-1517152D01*
G01X5120652Y-1526052D01*
G01X5103401Y-1538131D01*
G01X5088510Y-1553022D01*
G01X5076431Y-1570273D01*
G01X5067531Y-1589359D01*
G01X5062081Y-1609701D01*
G01X5060245Y-1630680D01*
G01X5060245Y-1630680D01*
G01X-489840Y-1630680D01*
G01X-489840Y-1267998D01*
G01X285586Y-1267998D01*
G01X287422Y-1288978D01*
G01X292872Y-1309319D01*
G01X301772Y-1328405D01*
G01X313851Y-1345656D01*
G01X328742Y-1360547D01*
G01X345993Y-1372626D01*
G01X365079Y-1381526D01*
G01X385421Y-1386977D01*
G01X406400Y-1388812D01*
G01X427379Y-1386977D01*
G01X447721Y-1381526D01*
G01X466807Y-1372626D01*
G01X484058Y-1360547D01*
G01X498949Y-1345656D01*
G01X511028Y-1328405D01*
G01X519928Y-1309319D01*
G01X525378Y-1288978D01*
G01X527214Y-1267998D01*
G01X525378Y-1247019D01*
G01X519928Y-1226678D01*
G01X511028Y-1207592D01*
G01X498949Y-1190341D01*
G01X484058Y-1175450D01*
G01X466807Y-1163371D01*
G01X447721Y-1154471D01*
G01X427379Y-1149020D01*
G01X406400Y-1147185D01*
G01X406400Y-1147185D01*
G01X385421Y-1149020D01*
G01X365079Y-1154471D01*
G01X345993Y-1163371D01*
G01X328742Y-1175450D01*
G01X313851Y-1190341D01*
G01X301772Y-1207592D01*
G01X292872Y-1226678D01*
G01X287422Y-1247019D01*
G01X285586Y-1267998D01*
G01X-489840Y-1267998D01*
G01X-489840Y-1017999D01*
G01X285586Y-1017999D01*
G01X287422Y-1038978D01*
G01X292872Y-1059320D01*
G01X301772Y-1078406D01*
G01X313851Y-1095657D01*
G01X328742Y-1110548D01*
G01X345993Y-1122627D01*
G01X365079Y-1131527D01*
G01X385421Y-1136977D01*
G01X406400Y-1138813D01*
G01X427379Y-1136977D01*
G01X447721Y-1131527D01*
G01X466807Y-1122627D01*
G01X484058Y-1110548D01*
G01X484625Y-1109980D01*
G01X3296646Y-1109980D01*
G01X3298573Y-1125850D01*
G01X3304242Y-1140798D01*
G01X3313323Y-1153954D01*
G01X3325289Y-1164555D01*
G01X3339445Y-1171985D01*
G01X3354967Y-1175811D01*
G01X3370953Y-1175811D01*
G01X3386475Y-1171985D01*
G01X3400631Y-1164555D01*
G01X3412597Y-1153954D01*
G01X3421678Y-1140798D01*
G01X3427347Y-1125850D01*
G01X3429274Y-1109980D01*
G01X3427347Y-1094110D01*
G01X3421678Y-1079162D01*
G01X3412597Y-1066006D01*
G01X3400631Y-1055405D01*
G01X3387459Y-1048492D01*
G01X4241044Y-1048492D01*
G01X4241044Y-1069863D01*
G01X4244971Y-1090871D01*
G01X4252692Y-1110800D01*
G01X4263943Y-1128971D01*
G01X4278341Y-1144765D01*
G01X4295396Y-1157644D01*
G01X4314527Y-1167171D01*
G01X4335083Y-1173019D01*
G01X4356364Y-1174991D01*
G01X4356364Y-1174991D01*
G01X4377645Y-1173019D01*
G01X4398201Y-1167171D01*
G01X4417332Y-1157644D01*
G01X4434387Y-1144765D01*
G01X4448786Y-1128971D01*
G01X4460036Y-1110800D01*
G01X4467757Y-1090871D01*
G01X4471684Y-1069863D01*
G01X4471684Y-1048492D01*
G01X4471684Y-1048492D01*
G01X4591056Y-1048492D01*
G01X4591056Y-1069863D01*
G01X4594983Y-1090871D01*
G01X4602704Y-1110800D01*
G01X4613955Y-1128971D01*
G01X4628353Y-1144765D01*
G01X4645408Y-1157644D01*
G01X4664539Y-1167171D01*
G01X4685095Y-1173019D01*
G01X4706376Y-1174991D01*
G01X4706376Y-1174991D01*
G01X4727657Y-1173019D01*
G01X4748213Y-1167171D01*
G01X4767344Y-1157644D01*
G01X4784399Y-1144765D01*
G01X4798798Y-1128971D01*
G01X4810048Y-1110800D01*
G01X4817769Y-1090871D01*
G01X4821696Y-1069863D01*
G01X4821696Y-1048492D01*
G01X4817769Y-1027483D01*
G01X4810048Y-1007555D01*
G01X4798798Y-989384D01*
G01X4784399Y-973590D01*
G01X4767344Y-960711D01*
G01X4748213Y-951184D01*
G01X4727657Y-945336D01*
G01X4706376Y-943364D01*
G01X4685095Y-945336D01*
G01X4664539Y-951184D01*
G01X4645408Y-960711D01*
G01X4628353Y-973590D01*
G01X4613955Y-989384D01*
G01X4602704Y-1007555D01*
G01X4594983Y-1027483D01*
G01X4591056Y-1048492D01*
G01X4471684Y-1048492D01*
G01X4467757Y-1027483D01*
G01X4460036Y-1007555D01*
G01X4448786Y-989384D01*
G01X4434387Y-973590D01*
G01X4417332Y-960711D01*
G01X4398201Y-951184D01*
G01X4377645Y-945336D01*
G01X4356364Y-943364D01*
G01X4335083Y-945336D01*
G01X4314527Y-951184D01*
G01X4295396Y-960711D01*
G01X4278341Y-973590D01*
G01X4263943Y-989384D01*
G01X4252692Y-1007555D01*
G01X4244971Y-1027483D01*
G01X4241044Y-1048492D01*
G01X3387459Y-1048492D01*
G01X3386475Y-1047975D01*
G01X3370953Y-1044149D01*
G01X3354967Y-1044149D01*
G01X3339445Y-1047975D01*
G01X3325289Y-1055405D01*
G01X3313323Y-1066006D01*
G01X3304242Y-1079162D01*
G01X3298573Y-1094110D01*
G01X3296646Y-1109980D01*
G01X3296646Y-1109980D01*
G01X484625Y-1109980D01*
G01X498949Y-1095657D01*
G01X511028Y-1078406D01*
G01X519928Y-1059320D01*
G01X525378Y-1038978D01*
G01X527214Y-1017999D01*
G01X525378Y-997020D01*
G01X519928Y-976678D01*
G01X511028Y-957592D01*
G01X498949Y-940341D01*
G01X484058Y-925450D01*
G01X466807Y-913371D01*
G01X447721Y-904471D01*
G01X427379Y-899021D01*
G01X406400Y-897185D01*
G01X406400Y-897185D01*
G01X385421Y-899021D01*
G01X365079Y-904471D01*
G01X345993Y-913371D01*
G01X328742Y-925450D01*
G01X313851Y-940341D01*
G01X301772Y-957592D01*
G01X292872Y-976678D01*
G01X287422Y-997020D01*
G01X285586Y-1017999D01*
G01X-489840Y-1017999D01*
G01X-489840Y-487680D01*
G01X3498145Y-487680D01*
G01X3499981Y-508659D01*
G01X3505431Y-529001D01*
G01X3514331Y-548087D01*
G01X3526410Y-565338D01*
G01X3541301Y-580229D01*
G01X3558552Y-592308D01*
G01X3577638Y-601208D01*
G01X3597980Y-606658D01*
G01X3618959Y-608494D01*
G01X3639938Y-606658D01*
G01X3660280Y-601208D01*
G01X3679366Y-592308D01*
G01X3696617Y-580229D01*
G01X3711508Y-565338D01*
G01X3723587Y-548087D01*
G01X3732487Y-529001D01*
G01X3737937Y-508659D01*
G01X3739773Y-487680D01*
G01X3748145Y-487680D01*
G01X3749980Y-508659D01*
G01X3755431Y-529001D01*
G01X3764331Y-548087D01*
G01X3776410Y-565338D01*
G01X3791301Y-580229D01*
G01X3808552Y-592308D01*
G01X3827638Y-601208D01*
G01X3847979Y-606658D01*
G01X3868958Y-608494D01*
G01X3889938Y-606658D01*
G01X3910279Y-601208D01*
G01X3929365Y-592308D01*
G01X3946616Y-580229D01*
G01X3961507Y-565338D01*
G01X3973586Y-548087D01*
G01X3982486Y-529001D01*
G01X3987937Y-508659D01*
G01X3989772Y-487680D01*
G01X3987937Y-466701D01*
G01X3982486Y-446359D01*
G01X3973586Y-427273D01*
G01X3961507Y-410022D01*
G01X3946616Y-395131D01*
G01X3929365Y-383052D01*
G01X3910279Y-374152D01*
G01X3889938Y-368702D01*
G01X3868958Y-366866D01*
G01X3847979Y-368702D01*
G01X3827638Y-374152D01*
G01X3808552Y-383052D01*
G01X3791301Y-395131D01*
G01X3776410Y-410022D01*
G01X3764331Y-427273D01*
G01X3755431Y-446359D01*
G01X3749980Y-466701D01*
G01X3748145Y-487680D01*
G01X3748145Y-487680D01*
G01X3739773Y-487680D01*
G01X3737937Y-466701D01*
G01X3732487Y-446359D01*
G01X3723587Y-427273D01*
G01X3711508Y-410022D01*
G01X3696617Y-395131D01*
G01X3679366Y-383052D01*
G01X3660280Y-374152D01*
G01X3639938Y-368702D01*
G01X3618959Y-366866D01*
G01X3597980Y-368702D01*
G01X3577638Y-374152D01*
G01X3558552Y-383052D01*
G01X3541301Y-395131D01*
G01X3526410Y-410022D01*
G01X3514331Y-427273D01*
G01X3505431Y-446359D01*
G01X3499981Y-466701D01*
G01X3498145Y-487680D01*
G01X3498145Y-487680D01*
G01X-489840Y-487680D01*
G01X-489840Y-228600D01*
G01X-487971Y-200088D01*
G01X-485054Y-185420D01*
G01X-440734Y-185420D01*
G01X-440734Y-185420D01*
G01X-438882Y-207774D01*
G01X-433375Y-229519D01*
G01X-424365Y-250060D01*
G01X-412096Y-268839D01*
G01X-396904Y-285342D01*
G01X-379203Y-299119D01*
G01X-359476Y-309795D01*
G01X-338260Y-317078D01*
G01X-316135Y-320770D01*
G01X-293704Y-320770D01*
G01X-271580Y-317078D01*
G01X-250364Y-309795D01*
G01X-230637Y-299119D01*
G01X-212936Y-285342D01*
G01X-197744Y-268839D01*
G01X-185475Y-250060D01*
G01X-176465Y-229519D01*
G01X-170958Y-207774D01*
G01X-169106Y-185420D01*
G01X-169106Y-185420D01*
G01X5863666Y-185420D01*
G01X5865518Y-207774D01*
G01X5871025Y-229519D01*
G01X5880035Y-250060D01*
G01X5892304Y-268839D01*
G01X5907496Y-285342D01*
G01X5925197Y-299119D01*
G01X5944924Y-309795D01*
G01X5966140Y-317078D01*
G01X5988265Y-320770D01*
G01X6010695Y-320770D01*
G01X6032820Y-317078D01*
G01X6054036Y-309795D01*
G01X6073763Y-299119D01*
G01X6091464Y-285342D01*
G01X6106656Y-268839D01*
G01X6118925Y-250060D01*
G01X6127935Y-229519D01*
G01X6133442Y-207774D01*
G01X6135294Y-185420D01*
G01X6133442Y-163066D01*
G01X6127935Y-141321D01*
G01X6118925Y-120780D01*
G01X6106656Y-102001D01*
G01X6091464Y-85498D01*
G01X6073763Y-71721D01*
G01X6054036Y-61045D01*
G01X6032820Y-53762D01*
G01X6010695Y-50070D01*
G01X5988265Y-50070D01*
G01X5966140Y-53762D01*
G01X5944924Y-61045D01*
G01X5925197Y-71721D01*
G01X5907496Y-85498D01*
G01X5892304Y-102001D01*
G01X5880035Y-120780D01*
G01X5871025Y-141321D01*
G01X5865518Y-163066D01*
G01X5863666Y-185420D01*
G01X5863666Y-185420D01*
G01X-169106Y-185420D01*
G01X-170958Y-163066D01*
G01X-176465Y-141321D01*
G01X-185475Y-120780D01*
G01X-197744Y-102001D01*
G01X-212936Y-85498D01*
G01X-230637Y-71721D01*
G01X-250364Y-61045D01*
G01X-271580Y-53762D01*
G01X-293704Y-50070D01*
G01X-316135Y-50070D01*
G01X-338260Y-53762D01*
G01X-359476Y-61045D01*
G01X-379203Y-71721D01*
G01X-396904Y-85498D01*
G01X-412096Y-102001D01*
G01X-424365Y-120780D01*
G01X-433375Y-141321D01*
G01X-438882Y-163066D01*
G01X-440734Y-185420D01*
G01X-485054Y-185420D01*
G01X-482397Y-172064D01*
G01X-473212Y-145007D01*
G01X-460575Y-119380D01*
G01X-444700Y-95622D01*
G01X-425860Y-74140D01*
G01X-404378Y-55300D01*
G01X-380620Y-39425D01*
G01X-354993Y-26788D01*
G01X-327936Y-17603D01*
G01X-299912Y-12029D01*
G01X-271400Y-10160D01*
G01X5971400Y-10160D01*
G01X5999912Y-12029D01*
G01X6027937Y-17603D01*
G01X6054994Y-26788D01*
G01X6080620Y-39425D01*
G01X6104378Y-55300D01*
G01X6125861Y-74140D01*
G01X6144700Y-95622D01*
G01X6160575Y-119380D01*
G01X6173213Y-145007D01*
G01X6182397Y-172064D01*
G01X6187972Y-200088D01*
G01X6189840Y-228600D01*
G01X6189840Y-2871400D01*
G01X6187972Y-2899912D01*
G01X6182397Y-2927937D01*
G01X6173213Y-2954994D01*
G01X6160575Y-2980620D01*
G01X6144700Y-3004378D01*
G01X6125861Y-3025861D01*
G01X6104378Y-3044700D01*
G01X6080620Y-3060575D01*
G01X6054994Y-3073212D01*
G01X6027937Y-3082397D01*
G01X5999912Y-3087971D01*
G01X5971400Y-3089840D01*
G01X3058414Y-3089840D01*
G01X3058414Y-2900680D01*
G01X5863666Y-2900680D01*
G01X5865518Y-2923034D01*
G01X5871025Y-2944779D01*
G01X5880035Y-2965320D01*
G01X5892304Y-2984099D01*
G01X5907496Y-3000602D01*
G01X5925197Y-3014379D01*
G01X5944924Y-3025055D01*
G01X5966140Y-3032338D01*
G01X5988265Y-3036030D01*
G01X6010695Y-3036030D01*
G01X6032820Y-3032338D01*
G01X6054036Y-3025055D01*
G01X6073763Y-3014379D01*
G01X6091464Y-3000602D01*
G01X6106656Y-2984099D01*
G01X6118925Y-2965320D01*
G01X6127935Y-2944779D01*
G01X6133442Y-2923034D01*
G01X6135294Y-2900680D01*
G01X6133442Y-2878326D01*
G01X6127935Y-2856581D01*
G01X6118925Y-2836040D01*
G01X6106656Y-2817261D01*
G01X6091464Y-2800758D01*
G01X6073763Y-2786981D01*
G01X6054036Y-2776305D01*
G01X6032820Y-2769022D01*
G01X6010695Y-2765330D01*
G01X5988265Y-2765330D01*
G01X5966140Y-2769022D01*
G01X5944924Y-2776305D01*
G01X5925197Y-2786981D01*
G01X5907496Y-2800758D01*
G01X5892304Y-2817261D01*
G01X5880035Y-2836040D01*
G01X5871025Y-2856581D01*
G01X5865518Y-2878326D01*
G01X5863666Y-2900680D01*
G01X5863666Y-2900680D01*
G01X3058414Y-2900680D01*
G01X3058414Y-2616200D01*
G01X3056750Y-2599302D01*
G01X3051821Y-2583054D01*
G01X3043817Y-2568080D01*
G01X3033045Y-2554955D01*
G01X3019920Y-2544183D01*
G01X3004946Y-2536179D01*
G01X2988698Y-2531250D01*
G01X2971800Y-2529586D01*
G01X1828800Y-2529586D01*
G01X1811902Y-2531250D01*
G01X1795654Y-2536179D01*
G01X1780680Y-2544183D01*
G01X1767555Y-2554955D01*
G01X1756783Y-2568080D01*
G01X1748779Y-2583054D01*
G01X1743850Y-2599302D01*
G01X1742186Y-2616200D01*
G37*
G54D10*
G01X1742186Y-2616200D02*
G01X1742186Y-3089840D01*
G01X-271400Y-3089840D01*
G02X-489840Y-2871400I0J218440D01*
G01X-489840Y-228600D01*
G02X-271400Y-10160I218440J0D01*
G01X5971400Y-10160D01*
G02X6189840Y-228600I0J-218440D01*
G01X6189840Y-2871400D01*
G02X5971400Y-3089840I-218440J0D01*
G01X3058414Y-3089840D01*
G01X3058414Y-2616200D01*
G03X2971800Y-2529586I-86614J0D01*
G01X1828800Y-2529586D01*
G03X1742186Y-2616200I0J-86614D01*
G01X-440734Y-185420D02*
G03X-169106Y-185420I135814J0D01*
G03X-440734Y-185420I-135814J0D01*
G01X-440614Y-2900680D02*
G03X-168986Y-2900680I135814J0D01*
G03X-440614Y-2900680I-135814J0D01*
G01X401320Y-2471985D02*
G03X401320Y-2713613I0J-120814D01*
G03X401320Y-2471985I0J120814D01*
G01X401320Y-2721985D02*
G03X401320Y-2963612I0J-120814D01*
G03X401320Y-2721985I0J120814D01*
G01X406400Y-1147185D02*
G03X406400Y-1388812I0J-120814D01*
G03X406400Y-1147185I0J120814D01*
G01X406400Y-897185D02*
G03X406400Y-1138813I0J-120814D01*
G03X406400Y-897185I0J120814D01*
G01X3887973Y-2328926D02*
G01X3393875Y-2328926D01*
G03X3282351Y-2377440I-45210J-48514D01*
G03X3393875Y-2425954I66314J0D01*
G01X3908069Y-2425954D01*
G03X3942373Y-2411745I0J48514D01*
G01X4137557Y-2216561D01*
G03X4182112Y-2103397I-2336J66273D01*
G03X4068948Y-2147952I-46891J-46891D01*
G01X3887973Y-2328926D01*
G01X3296646Y-1109980D02*
G03X3429274Y-1109980I66314J0D01*
G03X3296646Y-1109980I-66314J0D01*
G01X3498145Y-487680D02*
G03X3739773Y-487680I120814J0D01*
G03X3498145Y-487680I-120814J0D01*
G01X3736066Y-2020291D02*
G03X3868694Y-2020291I66314J0D01*
G03X3736066Y-2020291I-66314J0D01*
G01X3748145Y-487680D02*
G03X3989772Y-487680I120814J0D01*
G03X3748145Y-487680I-120814J0D01*
G01X4356364Y-1174991D02*
G03X4356364Y-943364I0J115814D01*
G03X4356364Y-1174991I0J-115814D01*
G01X4706376Y-1174991D02*
G03X4706376Y-943364I0J115814D01*
G03X4706376Y-1174991I0J-115814D01*
G01X5060245Y-2316480D02*
G03X5301873Y-2316480I120814J0D01*
G03X5060245Y-2316480I-120814J0D01*
G01X5060245Y-1630680D02*
G03X5301873Y-1630680I120814J0D01*
G03X5060245Y-1630680I-120814J0D01*
G01X5310245Y-2316480D02*
G03X5551872Y-2316480I120814J0D01*
G03X5310245Y-2316480I-120814J0D01*
G01X5310245Y-1630680D02*
G03X5551872Y-1630680I120814J0D01*
G03X5310245Y-1630680I-120814J0D01*
G01X5863666Y-185420D02*
G03X6135294Y-185420I135814J0D01*
G03X5863666Y-185420I-135814J0D01*
G01X5863666Y-2900680D02*
G03X6135294Y-2900680I135814J0D01*
G03X5863666Y-2900680I-135814J0D01*
G54D11*
G01X-404666Y-185420D02*
G01X-430574Y-185420D01*
G01X-205174Y-185420D02*
G01X-179266Y-185420D01*
G01X-304920Y-85674D02*
G01X-304920Y-59766D01*
G01X-304920Y-285166D02*
G01X-304920Y-311074D01*
G01X-404546Y-2900680D02*
G01X-430454Y-2900680D01*
G01X-205054Y-2900680D02*
G01X-179146Y-2900680D01*
G01X-304800Y-2800934D02*
G01X-304800Y-2775026D01*
G01X-304800Y-3000426D02*
G01X-304800Y-3026334D01*
G01X3784213Y-487680D02*
G01X3758305Y-487680D01*
G01X3953704Y-487680D02*
G01X3979612Y-487680D01*
G01X3868958Y-402934D02*
G01X3868958Y-377026D01*
G01X3868958Y-572426D02*
G01X3868958Y-598334D01*
G01X4706376Y-1138923D02*
G01X4706376Y-1164831D01*
G01X4706376Y-979432D02*
G01X4706376Y-953524D01*
G01X4626630Y-1059177D02*
G01X4600722Y-1059177D01*
G01X4786122Y-1059177D02*
G01X4812030Y-1059177D01*
G01X5899734Y-185420D02*
G01X5873826Y-185420D01*
G01X6099226Y-185420D02*
G01X6125134Y-185420D01*
G01X5999480Y-85674D02*
G01X5999480Y-59766D01*
G01X5999480Y-285166D02*
G01X5999480Y-311074D01*
G01X5899734Y-2900680D02*
G01X5873826Y-2900680D01*
G01X6099226Y-2900680D02*
G01X6125134Y-2900680D01*
G01X5999480Y-2800934D02*
G01X5999480Y-2775026D01*
G01X5999480Y-3000426D02*
G01X5999480Y-3026334D01*
G04 Copper End*

G04 Pad Start*
G54D12*
G01X5181059Y-2316480D03*
G01X5431058Y-2316480D03*
G01X5181059Y-1630680D03*
G01X5431058Y-1630680D03*
G01X3618959Y-487680D03*
G01X3868958Y-487680D03*
G54D13*
G01X4356364Y-1059177D03*
G01X4706376Y-1059177D03*
G54D12*
G01X401320Y-2592799D03*
G01X401320Y-2842798D03*
G01X406400Y-1017999D03*
G01X406400Y-1267998D03*
G54D14*
G01X-304920Y-185420D03*
G01X-304800Y-2900680D03*
G01X5999480Y-185420D03*
G01X5999480Y-2900680D03*
G04 Pad End*

G04 Via Start*
G54D16*
G01X3802380Y-2020291D03*
G01X3375660Y-1932851D03*
G01X3375660Y-2113280D03*
G01X3362960Y-1109980D03*
G01X3792728Y-1008380D03*
G01X3793490Y-1198880D03*
G01X3348228Y-855980D03*
G01X4124960Y-1924082D03*
G01X4632960Y-1724660D03*
G01X4629785Y-2110740D03*
G01X3348665Y-2377440D03*
G01X4135221Y-2150288D03*
G01X1168400Y-1762760D03*
G01X1330960Y-1762760D03*
G01X1158240Y-193040D03*
G01X1320800Y-193040D03*
G04 Via End*

G04 Track Start*
G54D11*
G01X3908069Y-2377440D02*
G01X3348665Y-2377440D01*
G01X4135221Y-2150288D02*
G01X3908069Y-2377440D01*
G04 Track End*

M02*

