G04 Layer: TopPasteMaskLayer*
G04 EasyEDA Pro v2.2.45.4, 2026-01-28 09:00:24*
G04 Gerber Generator version 0.3*
G04 Scale: 100 percent, Rotated: No, Reflected: No*
G04 Dimensions in millimeters*
G04 Leading zeros omitted, absolute positions, 4 integers and 5 decimals*
G04 Generated by one-click*
%FSLAX45Y45*%
%MOMM*%
%ADD10O,1.324X0.308*%
%ADD11R,2.1021X1.80188*%
%ADD12R,2.1021X1.80198*%
%ADD13R,2.49999X1.1*%
%ADD14R,2.34X3.59999*%
%ADD15C,0.8832*%
G75*


G04 PolygonModel Start*
G36*
G01X3415983Y-1999480D02*
G01X3415983Y-1871482D01*
G01X3420984Y-1866481D01*
G01X3535985Y-1866481D01*
G01X3540984Y-1871482D01*
G01X3541486Y-1912485D01*
G01X3496485Y-1912485D01*
G01X3496485Y-1957484D01*
G01X3540486Y-1957484D01*
G01X3540984Y-1999480D01*
G01X3535985Y-2004482D01*
G01X3420984Y-2004482D01*
G01X3415983Y-1999480D01*
G37*
G36*
G01X3756978Y-1871480D02*
G01X3756978Y-1999478D01*
G01X3751976Y-2004479D01*
G01X3636975Y-2004479D01*
G01X3631976Y-1999478D01*
G01X3631474Y-1958475D01*
G01X3676475Y-1958475D01*
G01X3676475Y-1913476D01*
G01X3632474Y-1913476D01*
G01X3631976Y-1871480D01*
G01X3636975Y-1866478D01*
G01X3751976Y-1866478D01*
G01X3756978Y-1871480D01*
G37*
G36*
G01X3415983Y-2177280D02*
G01X3415983Y-2049282D01*
G01X3420984Y-2044281D01*
G01X3535985Y-2044281D01*
G01X3540984Y-2049282D01*
G01X3541486Y-2090285D01*
G01X3496485Y-2090285D01*
G01X3496485Y-2135284D01*
G01X3540486Y-2135284D01*
G01X3540984Y-2177280D01*
G01X3535985Y-2182282D01*
G01X3420984Y-2182282D01*
G01X3415983Y-2177280D01*
G37*
G36*
G01X3756978Y-2049280D02*
G01X3756978Y-2177278D01*
G01X3751976Y-2182279D01*
G01X3636975Y-2182279D01*
G01X3631976Y-2177278D01*
G01X3631474Y-2136275D01*
G01X3676475Y-2136275D01*
G01X3676475Y-2091276D01*
G01X3632474Y-2091276D01*
G01X3631976Y-2049280D01*
G01X3636975Y-2044278D01*
G01X3751976Y-2044278D01*
G01X3756978Y-2049280D01*
G37*
G36*
G01X3749358Y-1134880D02*
G01X3749358Y-1262878D01*
G01X3744356Y-1267879D01*
G01X3629355Y-1267879D01*
G01X3624356Y-1262878D01*
G01X3623854Y-1221875D01*
G01X3668855Y-1221875D01*
G01X3668855Y-1176876D01*
G01X3624854Y-1176876D01*
G01X3624356Y-1134880D01*
G01X3629355Y-1129878D01*
G01X3744356Y-1129878D01*
G01X3749358Y-1134880D01*
G37*
G36*
G01X3408363Y-1262880D02*
G01X3408363Y-1134882D01*
G01X3413364Y-1129881D01*
G01X3528365Y-1129881D01*
G01X3533364Y-1134882D01*
G01X3533866Y-1175885D01*
G01X3488865Y-1175885D01*
G01X3488865Y-1220884D01*
G01X3532866Y-1220884D01*
G01X3533364Y-1262880D01*
G01X3528365Y-1267882D01*
G01X3413364Y-1267882D01*
G01X3408363Y-1262880D01*
G37*
G36*
G01X3749358Y-957080D02*
G01X3749358Y-1085078D01*
G01X3744356Y-1090079D01*
G01X3629355Y-1090079D01*
G01X3624356Y-1085078D01*
G01X3623854Y-1044075D01*
G01X3668855Y-1044075D01*
G01X3668855Y-999076D01*
G01X3624854Y-999076D01*
G01X3624356Y-957080D01*
G01X3629355Y-952078D01*
G01X3744356Y-952078D01*
G01X3749358Y-957080D01*
G37*
G36*
G01X3408363Y-1085080D02*
G01X3408363Y-957082D01*
G01X3413364Y-952081D01*
G01X3528365Y-952081D01*
G01X3533364Y-957082D01*
G01X3533866Y-998085D01*
G01X3488865Y-998085D01*
G01X3488865Y-1043084D01*
G01X3532866Y-1043084D01*
G01X3533364Y-1085080D01*
G01X3528365Y-1090082D01*
G01X3413364Y-1090082D01*
G01X3408363Y-1085080D01*
G37*
G36*
G01X1074598Y-2695440D02*
G01X1074598Y-2567442D01*
G01X1079599Y-2562441D01*
G01X1194600Y-2562441D01*
G01X1199599Y-2567442D01*
G01X1200102Y-2608445D01*
G01X1155101Y-2608445D01*
G01X1155101Y-2653444D01*
G01X1199101Y-2653444D01*
G01X1199599Y-2695440D01*
G01X1194600Y-2700442D01*
G01X1079599Y-2700442D01*
G01X1074598Y-2695440D01*
G37*
G36*
G01X1289599Y-2695440D02*
G01X1289601Y-2653444D01*
G01X1334099Y-2653444D01*
G01X1334099Y-2608445D01*
G01X1290102Y-2608445D01*
G01X1289599Y-2567442D01*
G01X1294600Y-2562441D01*
G01X1409598Y-2562441D01*
G01X1414600Y-2567442D01*
G01X1414600Y-2695440D01*
G01X1409598Y-2700442D01*
G01X1294600Y-2700442D01*
G01X1289599Y-2695440D01*
G37*
G36*
G01X1058803Y-1176289D02*
G01X1058803Y-1048291D01*
G01X1063804Y-1043290D01*
G01X1178805Y-1043290D01*
G01X1183804Y-1048291D01*
G01X1184307Y-1089294D01*
G01X1139306Y-1089294D01*
G01X1139306Y-1134293D01*
G01X1183306Y-1134293D01*
G01X1183804Y-1176289D01*
G01X1178805Y-1181290D01*
G01X1063804Y-1181290D01*
G01X1058803Y-1176289D01*
G37*
G36*
G01X1273804Y-1176289D02*
G01X1273806Y-1134293D01*
G01X1318304Y-1134293D01*
G01X1318304Y-1089294D01*
G01X1274307Y-1089294D01*
G01X1273804Y-1048291D01*
G01X1278805Y-1043290D01*
G01X1393803Y-1043290D01*
G01X1398805Y-1048291D01*
G01X1398805Y-1176289D01*
G01X1393803Y-1181290D01*
G01X1278805Y-1181290D01*
G01X1273804Y-1176289D01*
G37*

G04 Pad Start*
G54D10*
G01X4735170Y-2280285D03*
G01X4735170Y-2215286D03*
G01X4735170Y-2150288D03*
G01X4735170Y-2085289D03*
G01X4735170Y-2020291D03*
G01X4735170Y-1955267D03*
G01X4735170Y-1890268D03*
G01X4735170Y-1825269D03*
G01X4735170Y-1760271D03*
G01X4735170Y-1695272D03*
G01X4735170Y-1630274D03*
G01X4735170Y-1565275D03*
G01X4022750Y-2280285D03*
G01X4022750Y-2215286D03*
G01X4022750Y-2150288D03*
G01X4022750Y-2085289D03*
G01X4022750Y-2020291D03*
G01X4022750Y-1955267D03*
G01X4022750Y-1890268D03*
G01X4022750Y-1825269D03*
G01X4022750Y-1760271D03*
G01X4022750Y-1695272D03*
G01X4022750Y-1630274D03*
G01X4022750Y-1565275D03*
G54D11*
G01X1597660Y-601980D03*
G01X1597660Y-855980D03*
G01X1597660Y-1109980D03*
G54D12*
G01X1597660Y-1363980D03*
G01X1597660Y-1617980D03*
G01X1597660Y-1871980D03*
G01X1597660Y-2125980D03*
G01X1597660Y-2379980D03*
G01X3197860Y-2379980D03*
G01X3197860Y-2125980D03*
G01X3197860Y-1871980D03*
G01X3197860Y-1617980D03*
G01X3197860Y-1363980D03*
G54D11*
G01X3197860Y-1109980D03*
G01X3197860Y-855980D03*
G01X3197860Y-601980D03*
G54D12*
G01X1597660Y-2633980D03*
G01X3197860Y-2633980D03*
G54D13*
G01X1246955Y-2328037D03*
G01X1246955Y-2098040D03*
G01X1246955Y-1868043D03*
G54D14*
G01X652963Y-2098040D03*
G54D13*
G01X1241875Y-753237D03*
G01X1241875Y-523240D03*
G01X1241875Y-293243D03*
G54D14*
G01X647883Y-523240D03*
G04 Pad End*

M02*

