G04 Layer: TopLayer*
G04 EasyEDA Pro v2.2.45.4, 2026-02-21 16:19:53*
G04 Gerber Generator version 0.3*
G04 Scale: 100 percent, Rotated: No, Reflected: No*
G04 Dimensions in millimeters*
G04 Leading zeros omitted, absolute positions, 4 integers and 5 decimals*
G04 Generated by one-click*
%FSLAX45Y45*%
%MOMM*%
%ADD10C,1.0*%
%ADD11R,1.41X1.35001*%
%ADD12C,1.7*%
%ADD13O,1.324X0.308*%
%ADD14R,2.1021X1.80188*%
%ADD15R,2.1021X1.80198*%
%ADD16C,1.6*%
%ADD17R,2.49999X1.1*%
%ADD18R,2.3402X3.59999*%
%ADD19R,2.34X3.59999*%
%ADD20R,1.37701X1.13254*%
%ADD21C,2.0*%
%ADD22R,2.0X2.0*%
%ADD23R,2.0X1.59301*%
%ADD24R,1.6X1.6*%
%ADD25C,0.61*%
%ADD26C,0.508*%
%ADD27C,0.762*%
%ADD28C,0.254*%
%ADD29C,0.2794*%
G75*


G04 Rect Start*
G36*
G01X3903980Y-2214880D02*
G01X3903980Y-1884680D01*
G01X4132580Y-1884680D01*
G01X4132580Y-2214880D01*
G01X3903980Y-2214880D01*
G37*
G36*
G01X3624580Y-2214880D02*
G01X3624580Y-1884680D01*
G01X3853180Y-1884680D01*
G01X3853180Y-2214880D01*
G01X3624580Y-2214880D01*
G37*
G36*
G01X3469459Y-1276540D02*
G01X3469459Y-946340D01*
G01X3698059Y-946340D01*
G01X3698059Y-1276540D01*
G01X3469459Y-1276540D01*
G37*
G36*
G01X3726288Y-1276540D02*
G01X3726288Y-946340D01*
G01X3954888Y-946340D01*
G01X3954888Y-1276540D01*
G01X3726288Y-1276540D01*
G37*
G36*
G01X3078588Y-919480D02*
G01X3078588Y-755840D01*
G01X3388360Y-755840D01*
G01X3388360Y-919480D01*
G01X3078588Y-919480D01*
G37*
G36*
G01X4994910Y-1804670D02*
G01X4994910Y-1700530D01*
G01X5293360Y-1700530D01*
G01X5293360Y-1804670D01*
G01X4994910Y-1804670D01*
G37*
G36*
G01X4994910Y-2193290D02*
G01X4994910Y-2089150D01*
G01X5293360Y-2089150D01*
G01X5293360Y-2193290D01*
G01X4994910Y-2193290D01*
G37*
G36*
G01X5140960Y-1682814D02*
G01X5140960Y-1565910D01*
G01X5293360Y-1565910D01*
G01X5293360Y-1682814D01*
G01X5140960Y-1682814D01*
G37*
G36*
G01X5140960Y-1941447D02*
G01X5140960Y-1824542D01*
G01X5293360Y-1824542D01*
G01X5293360Y-1941447D01*
G01X5140960Y-1941447D01*
G37*
G36*
G01X5140960Y-2073974D02*
G01X5140960Y-1957070D01*
G01X5293360Y-1957070D01*
G01X5293360Y-2073974D01*
G01X5140960Y-2073974D01*
G37*
G36*
G01X5139690Y-2330514D02*
G01X5139690Y-2213610D01*
G01X5292090Y-2213610D01*
G01X5292090Y-2330514D01*
G01X5139690Y-2330514D01*
G37*
G36*
G01X767134Y-673640D02*
G01X767134Y-469360D01*
G01X1031186Y-469360D01*
G01X1031186Y-673640D01*
G01X767134Y-673640D01*
G37*
G36*
G01X772028Y-2044255D02*
G01X772028Y-1839976D01*
G01X1036080Y-1839976D01*
G01X1036080Y-2044255D01*
G01X772028Y-2044255D01*
G37*
G36*
G01X4432300Y-1676400D02*
G01X4432300Y-1567180D01*
G01X4582160Y-1567180D01*
G01X4582160Y-1676400D01*
G01X4432300Y-1676400D01*
G37*
G36*
G01X4908899Y-1435779D02*
G01X4908899Y-1207179D01*
G01X5175599Y-1207179D01*
G01X5175599Y-1435779D01*
G01X4908899Y-1435779D01*
G37*
G04 Rect End*

G04 Pad Start*
G54D10*
G01X1409700Y-1358900D03*
G01X3403600Y-2108200D03*
G01X3403600Y-2628900D03*
G01X3403600Y-1866900D03*
G01X3390900Y-1612900D03*
G01X3390900Y-1358900D03*
G01X3403600Y-2374900D03*
G54D11*
G01X3978580Y-1960880D03*
G01X3778580Y-1960880D03*
G01X3978580Y-2138680D03*
G01X3778580Y-2138680D03*
G01X3605860Y-1198880D03*
G01X3805860Y-1198880D03*
G01X3605860Y-1021080D03*
G01X3805860Y-1021080D03*
G54D12*
G01X5663659Y-2341880D03*
G01X5913658Y-2341880D03*
G01X5663659Y-1656080D03*
G01X5913658Y-1656080D03*
G54D13*
G01X5217770Y-2305685D03*
G01X5217770Y-2240686D03*
G01X5217770Y-2175688D03*
G01X5217770Y-2110689D03*
G01X5217770Y-2045691D03*
G01X5217770Y-1980667D03*
G01X5217770Y-1915668D03*
G01X5217770Y-1850669D03*
G01X5217770Y-1785671D03*
G01X5217770Y-1720672D03*
G01X5217770Y-1655674D03*
G01X5217770Y-1590675D03*
G01X4505350Y-2305685D03*
G01X4505350Y-2240686D03*
G01X4505350Y-2175688D03*
G01X4505350Y-2110689D03*
G01X4505350Y-2045691D03*
G01X4505350Y-1980667D03*
G01X4505350Y-1915668D03*
G01X4505350Y-1850669D03*
G01X4505350Y-1785671D03*
G01X4505350Y-1720672D03*
G01X4505350Y-1655674D03*
G01X4505350Y-1590675D03*
G54D14*
G01X1597660Y-601980D03*
G01X1597660Y-855980D03*
G01X1597660Y-1109980D03*
G54D15*
G01X1597660Y-1363980D03*
G01X1597660Y-1617980D03*
G01X1597660Y-1871980D03*
G01X1597660Y-2125980D03*
G01X1597660Y-2379980D03*
G01X3197860Y-2379980D03*
G01X3197860Y-2125980D03*
G01X3197860Y-1871980D03*
G01X3197860Y-1617980D03*
G01X3197860Y-1363980D03*
G54D14*
G01X3197860Y-1109980D03*
G01X3197860Y-855980D03*
G01X3197860Y-601980D03*
G54D15*
G01X1597660Y-2633980D03*
G01X3197860Y-2633980D03*
G54D12*
G01X5234399Y-304800D03*
G01X5484398Y-304800D03*
G54D16*
G01X4219204Y-533397D03*
G01X4569216Y-533397D03*
G54D12*
G01X-190500Y-2110199D03*
G01X-190500Y-2360198D03*
G01X-190500Y-738599D03*
G01X-190500Y-988598D03*
G54D17*
G01X904055Y-2442337D03*
G01X904055Y-2212340D03*
G01X904055Y-1982343D03*
G54D19*
G01X310063Y-2212340D03*
G54D17*
G01X898975Y-1070737D03*
G01X898975Y-840740D03*
G01X898975Y-610743D03*
G54D19*
G01X304983Y-840740D03*
G54D20*
G01X1270000Y-2640000D03*
G01X1270000Y-2440000D03*
G01X1270000Y-839800D03*
G01X1270000Y-1039800D03*
G54D21*
G01X6150000Y-150000D03*
G01X6150000Y-2950000D03*
G01X-350000Y-150000D03*
G01X-350000Y-2950000D03*
G54D22*
G01X1257300Y-228600D03*
G54D21*
G01X1257300Y-482600D03*
G54D23*
G01X3333293Y-203200D03*
G01X3753307Y-203200D03*
G54D16*
G01X25405Y-1511303D03*
G01X279405Y-1511303D03*
G01X533405Y-1511303D03*
G01X787405Y-1511303D03*
G54D24*
G01X1041405Y-1511303D03*
G54D11*
G01X5012580Y-1321479D03*
G01X4812580Y-1321479D03*
G04 Pad End*

G04 Via Start*
G54D25*
G01X4094489Y-2045699D03*
G01X3667760Y-1958251D03*
G01X3667760Y-2138680D03*
G01X3502660Y-1109980D03*
G01X3919728Y-1008380D03*
G01X3920490Y-1198880D03*
G01X3348228Y-855980D03*
G01X4620260Y-1911383D03*
G01X5039360Y-1750060D03*
G01X5036400Y-2136140D03*
G01X4394200Y-1981200D03*
G01X1748465Y-1362487D03*
G01X904054Y-1879600D03*
G01X990600Y-1879600D03*
G01X812800Y-1879600D03*
G01X812800Y-508000D03*
G01X899160Y-508000D03*
G01X990600Y-508000D03*
G01X3502660Y-1021080D03*
G01X3502660Y-1198880D03*
G01X5142667Y-1321479D03*
G01X5112400Y-1750060D03*
G01X5112385Y-2136140D03*
G04 Via End*

G04 Track Start*
G54D26*
G01X5663659Y-1656080D02*
G01X5633179Y-1625600D01*
G01X5913658Y-1656080D02*
G01X5690138Y-1879600D01*
G01X5212080Y-1879600D01*
G01X5633179Y-1625600D02*
G01X5212080Y-1625600D01*
G01X5913658Y-2341880D02*
G01X5583458Y-2011680D01*
G01X5217160Y-2011680D01*
G01X5663659Y-2341880D02*
G01X5592539Y-2270760D01*
G01X5217160Y-2270760D01*
G54D27*
G01X3197860Y-601980D02*
G01X3504659Y-601980D01*
G01X904055Y-2212340D02*
G01X310063Y-2212340D01*
G01X898975Y-840740D02*
G01X304983Y-840740D01*
G54D28*
G01X4505350Y-1915668D02*
G01X4615975Y-1915668D01*
G01X4620260Y-1911383D01*
G01X4505350Y-1980667D02*
G01X4394733Y-1980667D01*
G01X4394200Y-1981200D01*
G01X4318000Y-2108200D02*
G01X4502861Y-2108200D01*
G01X4505350Y-2110689D01*
G01X4505350Y-1850669D02*
G01X4501820Y-1854200D01*
G01X4318000Y-1854200D01*
G01X4280380Y-1816580D01*
G54D29*
G01X4094489Y-2045699D02*
G01X4505342Y-2045699D01*
G54D28*
G01X3215640Y-2108200D02*
G01X3197860Y-2125980D01*
G01X4318000Y-2108200D02*
G01X4299647Y-2108200D01*
G01X4150267Y-2257580D01*
G01X3606893Y-2257580D01*
G01X3457513Y-2108200D01*
G54D26*
G01X4775200Y-2209800D02*
G01X4679315Y-2305685D01*
G01X4505350Y-2305685D01*
G01X4775200Y-1624266D02*
G01X4775200Y-2209800D01*
G54D28*
G01X4505350Y-1785671D02*
G01X4332135Y-1785671D01*
G01X4318000Y-1771535D01*
G01X4388714Y-2240686D02*
G01X4505350Y-2240686D01*
G01X3197860Y-2633980D02*
G01X3995420Y-2633980D01*
G01X4318000Y-2311400D01*
G01X4388714Y-2240686D01*
G01X4501363Y-2171700D02*
G01X4505350Y-2175688D01*
G01X4330700Y-2171700D02*
G01X4501363Y-2171700D01*
G01X4318000Y-1771536D02*
G01X4305300Y-1758835D01*
G01X3841635Y-1758835D01*
G01X3797300Y-1714500D01*
G01X3197860Y-2379980D02*
G01X4122420Y-2379980D01*
G01X4330700Y-2171700D01*
G01X3543300Y-1363980D02*
G01X3197860Y-1363980D01*
G01X4505350Y-1720672D02*
G01X4352005Y-1720672D01*
G01X3878100Y-1698780D02*
G01X3543300Y-1363980D01*
G01X4352005Y-1720672D02*
G01X4330113Y-1698780D01*
G01X3878100Y-1698780D01*
G01X3797300Y-1714500D02*
G01X3492500Y-1714500D01*
G01X3395980Y-1617980D01*
G01X3197860Y-1617980D01*
G01X4280380Y-1816580D02*
G01X3453920Y-1816580D01*
G01X3398520Y-1871980D01*
G01X3197860Y-1871980D01*
G01X1748465Y-1362487D02*
G01X1599153Y-1362487D01*
G01X1597660Y-1363980D01*
G01X3457513Y-2108200D02*
G01X3403600Y-2108200D01*
G01X3215640Y-2108200D01*
G01X898975Y-1070737D02*
G01X910894Y-1058817D01*
G01X1250983Y-1058817D01*
G01X1270000Y-1039800D01*
G01X1270000Y-2440000D02*
G01X1267663Y-2442337D01*
G01X904055Y-2442337D01*
G01X1597660Y-601980D02*
G01X1597660Y-568960D01*
G01X1257300Y-228600D01*
G01X1597660Y-855980D02*
G01X1257300Y-515620D01*
G01X1257300Y-482600D01*
G54D27*
G01X-190500Y-533400D02*
G01X-190500Y-738599D01*
G01X-419100Y-1881599D02*
G01X-190500Y-2110199D01*
G01X-419100Y-762000D02*
G01X-419100Y-1881599D01*
G54D28*
G01X1597660Y-1617980D02*
G01X1490980Y-1511300D01*
G01X1041400Y-1511300D01*
G01X1066800Y-1790700D02*
G01X546100Y-1790700D01*
G01X279400Y-1524000D01*
G01X279400Y-1511300D01*
G01X787400Y-1524000D02*
G01X787400Y-1511300D01*
G01X1597660Y-1871980D02*
G01X1363980Y-1638300D01*
G01X901700Y-1638300D01*
G01X787400Y-1524000D01*
G01X1575193Y-2125980D02*
G01X1168639Y-1719426D01*
G01X813394Y-1719426D01*
G01X587294Y-1493326D01*
G01X551374Y-1493326D01*
G01X1597660Y-2125980D02*
G01X1575193Y-2125980D01*
G01X551374Y-1493326D02*
G01X533400Y-1511300D01*
G01X1597660Y-2379980D02*
G01X1541780Y-2379980D01*
G01X1435100Y-2273300D01*
G01X1435100Y-2159000D01*
G01X1066800Y-1790700D01*
G54D27*
G01X307820Y-35080D02*
G01X-190500Y-533400D01*
G01X3166359Y-35080D02*
G01X307820Y-35080D01*
G01X-419100Y-762000D02*
G01X-190500Y-533400D01*
G01X4495800Y-1624266D02*
G01X4775200Y-1624266D01*
G01X3753307Y-203200D02*
G01X5145499Y-203200D01*
G01X5234399Y-292100D01*
G01X5234399Y-304800D01*
G54D28*
G01X1597660Y-1109980D02*
G01X1327480Y-839800D01*
G01X1270000Y-839800D01*
G01X1409700Y-1358900D02*
G01X1592580Y-1358900D01*
G01X1597660Y-1363980D01*
G01X1597660Y-2633980D02*
G01X1591640Y-2640000D01*
G01X1270000Y-2640000D01*
G54D27*
G01X-190500Y-988598D02*
G01X157124Y-988598D01*
G01X304983Y-840740D01*
G01X310063Y-2212340D02*
G01X162204Y-2360198D01*
G01X-190500Y-2360198D01*
G54D26*
G01X3197860Y-1109980D02*
G01X3502660Y-1109980D01*
G54D27*
G01X4775200Y-1624266D02*
G01X4775200Y-1089393D01*
G01X3504659Y-601980D02*
G01X3618959Y-487680D01*
G01X3166359Y-35080D01*
G01X4173487Y-487680D02*
G01X3618959Y-487680D01*
G01X4775200Y-1089393D02*
G01X4173487Y-487680D01*
G04 Track End*

M02*

